<svg xmlns="http://www.w3.org/2000/svg" xmlns:xlink="http://www.w3.org/1999/xlink" width="512" zoomAndPan="magnify" viewBox="0 0 384 383.999986" height="512" preserveAspectRatio="xMidYMid meet" version="1.0"><defs><clipPath id="cef7e9b034"><path d="M 155 47.339844 L 299 47.339844 L 299 191 L 155 191 Z M 155 47.339844 " clip-rule="nonzero"/></clipPath><clipPath id="8a963da97e"><path d="M 102.460938 222 L 350.847656 222 L 350.847656 346.714844 L 102.460938 346.714844 Z M 102.460938 222 " clip-rule="nonzero"/></clipPath><clipPath id="0e1d247fe6"><path d="M 113 44.167969 L 260 44.167969 L 260 190 L 113 190 Z M 113 44.167969 " clip-rule="nonzero"/></clipPath><clipPath id="039a27b121"><path d="M 59.921875 222 L 312.675781 222 L 312.675781 348.640625 L 59.921875 348.640625 Z M 59.921875 222 " clip-rule="nonzero"/></clipPath><clipPath id="c1ddd3485e"><path d="M 91 42.453125 L 238 42.453125 L 238 189 L 91 189 Z M 91 42.453125 " clip-rule="nonzero"/></clipPath><clipPath id="0eb94e7ab3"><path d="M 38.398438 220 L 291.15625 220 L 291.15625 346.921875 L 38.398438 346.921875 Z M 38.398438 220 " clip-rule="nonzero"/></clipPath></defs><g clip-path="url(#cef7e9b034)"><path fill="#028900" d="M 298.109375 118.871094 C 298.109375 120.042969 298.082031 121.210938 298.023438 122.382812 C 297.964844 123.550781 297.878906 124.71875 297.765625 125.882812 C 297.652344 127.046875 297.507812 128.210938 297.335938 129.367188 C 297.164062 130.523438 296.964844 131.679688 296.734375 132.828125 C 296.507812 133.972656 296.25 135.117188 295.964844 136.253906 C 295.683594 137.386719 295.371094 138.515625 295.03125 139.636719 C 294.691406 140.757812 294.324219 141.867188 293.929688 142.96875 C 293.535156 144.070312 293.113281 145.164062 292.664062 146.246094 C 292.21875 147.328125 291.742188 148.394531 291.242188 149.453125 C 290.742188 150.511719 290.214844 151.558594 289.664062 152.589844 C 289.113281 153.625 288.535156 154.640625 287.933594 155.644531 C 287.332031 156.648438 286.707031 157.636719 286.054688 158.613281 C 285.40625 159.585938 284.730469 160.542969 284.03125 161.480469 C 283.335938 162.421875 282.617188 163.34375 281.875 164.25 C 281.128906 165.15625 280.367188 166.039062 279.578125 166.910156 C 278.792969 167.777344 277.988281 168.625 277.160156 169.449219 C 276.332031 170.277344 275.484375 171.085938 274.617188 171.871094 C 273.75 172.65625 272.863281 173.421875 271.957031 174.164062 C 271.054688 174.90625 270.128906 175.628906 269.191406 176.324219 C 268.25 177.023438 267.292969 177.695312 266.320312 178.347656 C 265.347656 178.996094 264.359375 179.625 263.351562 180.226562 C 262.347656 180.828125 261.332031 181.402344 260.296875 181.957031 C 259.265625 182.507812 258.222656 183.035156 257.164062 183.535156 C 256.105469 184.035156 255.035156 184.507812 253.953125 184.957031 C 252.871094 185.40625 251.78125 185.824219 250.675781 186.21875 C 249.574219 186.613281 248.464844 186.980469 247.34375 187.320312 C 246.222656 187.660156 245.09375 187.972656 243.960938 188.257812 C 242.824219 188.542969 241.683594 188.800781 240.535156 189.027344 C 239.386719 189.253906 238.234375 189.457031 237.074219 189.628906 C 235.917969 189.800781 234.753906 189.941406 233.589844 190.058594 C 232.425781 190.171875 231.257812 190.257812 230.089844 190.316406 C 228.921875 190.371094 227.75 190.402344 226.578125 190.402344 C 225.410156 190.402344 224.238281 190.371094 223.070312 190.316406 C 221.902344 190.257812 220.734375 190.171875 219.570312 190.058594 C 218.402344 189.941406 217.242188 189.800781 216.085938 189.628906 C 214.925781 189.457031 213.773438 189.253906 212.625 189.027344 C 211.476562 188.800781 210.335938 188.542969 209.199219 188.257812 C 208.0625 187.972656 206.9375 187.660156 205.816406 187.320312 C 204.695312 186.980469 203.585938 186.613281 202.480469 186.21875 C 201.378906 185.824219 200.289062 185.40625 199.207031 184.957031 C 198.125 184.507812 197.054688 184.035156 195.996094 183.535156 C 194.9375 183.035156 193.894531 182.507812 192.859375 181.957031 C 191.828125 181.402344 190.808594 180.828125 189.804688 180.226562 C 188.800781 179.625 187.8125 178.996094 186.839844 178.347656 C 185.867188 177.695312 184.910156 177.023438 183.96875 176.324219 C 183.027344 175.628906 182.105469 174.90625 181.203125 174.164062 C 180.296875 173.421875 179.410156 172.65625 178.542969 171.871094 C 177.675781 171.085938 176.828125 170.277344 176 169.449219 C 175.171875 168.625 174.367188 167.777344 173.578125 166.910156 C 172.792969 166.039062 172.027344 165.15625 171.285156 164.25 C 170.542969 163.34375 169.824219 162.421875 169.125 161.480469 C 168.429688 160.542969 167.753906 159.585938 167.105469 158.613281 C 166.453125 157.636719 165.828125 156.648438 165.226562 155.644531 C 164.625 154.640625 164.046875 153.621094 163.496094 152.589844 C 162.945312 151.558594 162.417969 150.511719 161.917969 149.453125 C 161.417969 148.394531 160.941406 147.328125 160.496094 146.246094 C 160.046875 145.164062 159.625 144.070312 159.230469 142.96875 C 158.835938 141.867188 158.46875 140.757812 158.128906 139.636719 C 157.789062 138.515625 157.476562 137.386719 157.191406 136.253906 C 156.910156 135.117188 156.652344 133.972656 156.425781 132.828125 C 156.195312 131.679688 155.996094 130.523438 155.824219 129.367188 C 155.652344 128.210938 155.507812 127.046875 155.394531 125.882812 C 155.277344 124.71875 155.191406 123.550781 155.136719 122.382812 C 155.078125 121.210938 155.050781 120.042969 155.050781 118.871094 C 155.050781 117.699219 155.078125 116.53125 155.136719 115.363281 C 155.191406 114.191406 155.277344 113.027344 155.394531 111.859375 C 155.507812 110.695312 155.652344 109.535156 155.824219 108.375 C 155.996094 107.21875 156.195312 106.066406 156.425781 104.917969 C 156.652344 103.769531 156.910156 102.625 157.191406 101.492188 C 157.476562 100.355469 157.789062 99.226562 158.128906 98.109375 C 158.46875 96.988281 158.835938 95.875 159.230469 94.773438 C 159.625 93.671875 160.046875 92.578125 160.496094 91.5 C 160.941406 90.417969 161.417969 89.347656 161.917969 88.289062 C 162.417969 87.230469 162.945312 86.183594 163.496094 85.152344 C 164.046875 84.121094 164.625 83.101562 165.226562 82.097656 C 165.828125 81.09375 166.453125 80.105469 167.105469 79.132812 C 167.753906 78.160156 168.429688 77.203125 169.125 76.261719 C 169.824219 75.320312 170.542969 74.398438 171.285156 73.492188 C 172.027344 72.589844 172.792969 71.703125 173.578125 70.835938 C 174.367188 69.96875 175.171875 69.121094 176 68.292969 C 176.828125 67.464844 177.675781 66.65625 178.542969 65.871094 C 179.410156 65.085938 180.296875 64.320312 181.203125 63.578125 C 182.105469 62.835938 183.027344 62.117188 183.96875 61.417969 C 184.910156 60.71875 185.867188 60.046875 186.839844 59.394531 C 187.8125 58.746094 188.800781 58.121094 189.804688 57.519531 C 190.808594 56.917969 191.828125 56.339844 192.859375 55.789062 C 193.894531 55.234375 194.9375 54.710938 195.996094 54.210938 C 197.054688 53.707031 198.125 53.234375 199.207031 52.785156 C 200.289062 52.339844 201.378906 51.917969 202.480469 51.523438 C 203.585938 51.128906 204.695312 50.761719 205.816406 50.421875 C 206.9375 50.082031 208.0625 49.769531 209.199219 49.484375 C 210.335938 49.199219 211.476562 48.945312 212.625 48.714844 C 213.773438 48.488281 214.925781 48.289062 216.085938 48.117188 C 217.242188 47.945312 218.402344 47.800781 219.570312 47.6875 C 220.734375 47.570312 221.902344 47.484375 223.070312 47.425781 C 224.238281 47.371094 225.410156 47.339844 226.578125 47.339844 C 227.75 47.339844 228.921875 47.371094 230.089844 47.425781 C 231.257812 47.484375 232.425781 47.570312 233.589844 47.6875 C 234.753906 47.800781 235.917969 47.945312 237.074219 48.117188 C 238.234375 48.289062 239.386719 48.488281 240.535156 48.714844 C 241.683594 48.945312 242.824219 49.199219 243.960938 49.484375 C 245.09375 49.769531 246.222656 50.082031 247.34375 50.421875 C 248.464844 50.761719 249.574219 51.128906 250.675781 51.523438 C 251.78125 51.917969 252.871094 52.339844 253.953125 52.785156 C 255.035156 53.234375 256.105469 53.707031 257.164062 54.210938 C 258.222656 54.710938 259.265625 55.234375 260.296875 55.789062 C 261.332031 56.339844 262.347656 56.917969 263.351562 57.519531 C 264.359375 58.121094 265.347656 58.746094 266.320312 59.394531 C 267.292969 60.046875 268.25 60.71875 269.191406 61.417969 C 270.128906 62.117188 271.054688 62.835938 271.957031 63.578125 C 272.863281 64.320312 273.75 65.085938 274.617188 65.871094 C 275.484375 66.65625 276.332031 67.464844 277.160156 68.292969 C 277.988281 69.121094 278.792969 69.96875 279.578125 70.835938 C 280.367188 71.703125 281.128906 72.589844 281.875 73.492188 C 282.617188 74.398438 283.335938 75.320312 284.03125 76.261719 C 284.730469 77.203125 285.40625 78.160156 286.054688 79.132812 C 286.707031 80.105469 287.332031 81.09375 287.933594 82.097656 C 288.535156 83.101562 289.113281 84.121094 289.664062 85.152344 C 290.214844 86.183594 290.742188 87.230469 291.242188 88.289062 C 291.742188 89.347656 292.21875 90.417969 292.664062 91.5 C 293.113281 92.578125 293.535156 93.671875 293.929688 94.773438 C 294.324219 95.875 294.691406 96.988281 295.03125 98.109375 C 295.371094 99.226562 295.683594 100.355469 295.964844 101.492188 C 296.25 102.625 296.507812 103.769531 296.734375 104.917969 C 296.964844 106.066406 297.164062 107.21875 297.335938 108.375 C 297.507812 109.535156 297.652344 110.695312 297.765625 111.859375 C 297.878906 113.027344 297.964844 114.191406 298.023438 115.363281 C 298.082031 116.53125 298.109375 117.699219 298.109375 118.871094 Z M 298.109375 118.871094 " fill-opacity="1" fill-rule="nonzero"/></g><g clip-path="url(#8a963da97e)"><path fill="#028900" d="M 102.527344 346.417969 C 102.527344 277.90625 158.066406 222.359375 226.578125 222.359375 C 295.09375 222.359375 350.636719 277.90625 350.636719 346.417969 Z M 102.527344 346.417969 " fill-opacity="1" fill-rule="nonzero"/></g><g clip-path="url(#0e1d247fe6)"><path fill="#ffffff" d="M 259.242188 117.046875 C 259.242188 118.238281 259.210938 119.429688 259.152344 120.621094 C 259.09375 121.8125 259.007812 123 258.890625 124.1875 C 258.773438 125.375 258.628906 126.558594 258.453125 127.738281 C 258.277344 128.917969 258.074219 130.09375 257.839844 131.261719 C 257.609375 132.433594 257.347656 133.59375 257.058594 134.753906 C 256.765625 135.910156 256.449219 137.058594 256.101562 138.199219 C 255.757812 139.339844 255.382812 140.472656 254.980469 141.597656 C 254.578125 142.71875 254.148438 143.832031 253.695312 144.933594 C 253.238281 146.035156 252.753906 147.125 252.246094 148.203125 C 251.734375 149.28125 251.199219 150.347656 250.636719 151.398438 C 250.074219 152.449219 249.484375 153.488281 248.875 154.507812 C 248.261719 155.53125 247.621094 156.539062 246.960938 157.53125 C 246.296875 158.523438 245.609375 159.496094 244.898438 160.457031 C 244.191406 161.414062 243.457031 162.355469 242.699219 163.277344 C 241.941406 164.199219 241.164062 165.101562 240.363281 165.984375 C 239.5625 166.867188 238.742188 167.730469 237.898438 168.574219 C 237.054688 169.417969 236.191406 170.238281 235.304688 171.039062 C 234.421875 171.839844 233.519531 172.621094 232.597656 173.375 C 231.675781 174.132812 230.738281 174.867188 229.777344 175.578125 C 228.820312 176.289062 227.847656 176.972656 226.855469 177.636719 C 225.863281 178.300781 224.855469 178.9375 223.832031 179.550781 C 222.808594 180.164062 221.773438 180.75 220.71875 181.3125 C 219.667969 181.875 218.601562 182.410156 217.523438 182.921875 C 216.449219 183.429688 215.355469 183.914062 214.253906 184.371094 C 213.152344 184.828125 212.042969 185.257812 210.917969 185.660156 C 209.796875 186.058594 208.664062 186.433594 207.523438 186.78125 C 206.382812 187.125 205.230469 187.445312 204.074219 187.734375 C 202.917969 188.023438 201.753906 188.285156 200.585938 188.519531 C 199.414062 188.75 198.242188 188.953125 197.0625 189.128906 C 195.882812 189.304688 194.699219 189.449219 193.511719 189.566406 C 192.324219 189.683594 191.136719 189.773438 189.945312 189.832031 C 188.753906 189.890625 187.5625 189.917969 186.367188 189.917969 C 185.175781 189.917969 183.984375 189.890625 182.792969 189.832031 C 181.601562 189.773438 180.414062 189.683594 179.226562 189.566406 C 178.039062 189.449219 176.855469 189.304688 175.675781 189.128906 C 174.496094 188.953125 173.320312 188.75 172.152344 188.519531 C 170.980469 188.285156 169.820312 188.023438 168.660156 187.734375 C 167.503906 187.445312 166.355469 187.125 165.214844 186.78125 C 164.074219 186.433594 162.941406 186.058594 161.820312 185.660156 C 160.695312 185.257812 159.582031 184.828125 158.480469 184.371094 C 157.378906 183.914062 156.289062 183.429688 155.210938 182.921875 C 154.132812 182.410156 153.070312 181.875 152.015625 181.3125 C 150.964844 180.75 149.925781 180.164062 148.90625 179.550781 C 147.882812 178.9375 146.875 178.300781 145.882812 177.636719 C 144.890625 176.972656 143.917969 176.289062 142.957031 175.578125 C 142 174.867188 141.0625 174.132812 140.140625 173.375 C 139.21875 172.621094 138.3125 171.839844 137.429688 171.039062 C 136.546875 170.238281 135.683594 169.417969 134.839844 168.574219 C 133.996094 167.730469 133.175781 166.867188 132.375 165.984375 C 131.574219 165.101562 130.792969 164.199219 130.039062 163.277344 C 129.28125 162.355469 128.546875 161.414062 127.835938 160.457031 C 127.125 159.496094 126.441406 158.523438 125.777344 157.53125 C 125.113281 156.539062 124.476562 155.53125 123.863281 154.507812 C 123.25 153.488281 122.664062 152.449219 122.101562 151.398438 C 121.539062 150.347656 121.003906 149.28125 120.492188 148.203125 C 119.984375 147.125 119.5 146.035156 119.042969 144.933594 C 118.585938 143.832031 118.15625 142.71875 117.757812 141.597656 C 117.355469 140.472656 116.980469 139.339844 116.632812 138.199219 C 116.289062 137.058594 115.96875 135.910156 115.679688 134.753906 C 115.390625 133.59375 115.128906 132.433594 114.894531 131.261719 C 114.664062 130.09375 114.460938 128.917969 114.285156 127.738281 C 114.109375 126.558594 113.964844 125.375 113.847656 124.1875 C 113.730469 123 113.640625 121.8125 113.582031 120.621094 C 113.527344 119.429688 113.496094 118.238281 113.496094 117.046875 C 113.496094 115.851562 113.527344 114.660156 113.582031 113.46875 C 113.640625 112.277344 113.730469 111.089844 113.847656 109.902344 C 113.964844 108.714844 114.109375 107.53125 114.285156 106.351562 C 114.460938 105.171875 114.664062 104 114.894531 102.828125 C 115.128906 101.660156 115.390625 100.496094 115.679688 99.339844 C 115.96875 98.183594 116.289062 97.035156 116.632812 95.890625 C 116.980469 94.75 117.355469 93.617188 117.757812 92.496094 C 118.15625 91.371094 118.585938 90.261719 119.042969 89.160156 C 119.5 88.058594 119.984375 86.96875 120.492188 85.890625 C 121.003906 84.8125 121.539062 83.746094 122.101562 82.695312 C 122.664062 81.640625 123.25 80.605469 123.863281 79.582031 C 124.476562 78.558594 125.113281 77.550781 125.777344 76.558594 C 126.441406 75.570312 127.125 74.59375 127.835938 73.636719 C 128.546875 72.679688 129.28125 71.738281 130.039062 70.816406 C 130.792969 69.894531 131.574219 68.992188 132.375 68.109375 C 133.175781 67.222656 133.996094 66.359375 134.839844 65.515625 C 135.683594 64.675781 136.546875 63.851562 137.429688 63.050781 C 138.3125 62.25 139.21875 61.472656 140.140625 60.714844 C 141.0625 59.957031 142 59.226562 142.957031 58.515625 C 143.917969 57.804688 144.890625 57.117188 145.882812 56.453125 C 146.875 55.792969 147.882812 55.152344 148.90625 54.542969 C 149.925781 53.929688 150.964844 53.339844 152.015625 52.777344 C 153.070312 52.214844 154.132812 51.679688 155.210938 51.171875 C 156.289062 50.660156 157.378906 50.175781 158.480469 49.71875 C 159.582031 49.265625 160.695312 48.835938 161.820312 48.433594 C 162.941406 48.03125 164.074219 47.65625 165.214844 47.3125 C 166.355469 46.964844 167.503906 46.648438 168.660156 46.355469 C 169.820312 46.066406 170.980469 45.804688 172.152344 45.574219 C 173.320312 45.339844 174.496094 45.136719 175.675781 44.960938 C 176.855469 44.789062 178.039062 44.640625 179.226562 44.523438 C 180.414062 44.40625 181.601562 44.320312 182.792969 44.261719 C 183.984375 44.203125 185.175781 44.171875 186.367188 44.171875 C 187.5625 44.171875 188.753906 44.203125 189.945312 44.261719 C 191.136719 44.320312 192.324219 44.40625 193.511719 44.523438 C 194.699219 44.640625 195.882812 44.789062 197.0625 44.960938 C 198.242188 45.136719 199.414062 45.339844 200.585938 45.574219 C 201.753906 45.804688 202.917969 46.066406 204.074219 46.355469 C 205.230469 46.648438 206.382812 46.964844 207.523438 47.3125 C 208.664062 47.65625 209.796875 48.03125 210.917969 48.433594 C 212.042969 48.835938 213.152344 49.265625 214.253906 49.71875 C 215.355469 50.175781 216.449219 50.660156 217.527344 51.171875 C 218.601562 51.679688 219.667969 52.214844 220.71875 52.777344 C 221.773438 53.339844 222.808594 53.929688 223.832031 54.542969 C 224.855469 55.152344 225.863281 55.792969 226.855469 56.453125 C 227.847656 57.117188 228.820312 57.804688 229.777344 58.515625 C 230.738281 59.226562 231.675781 59.957031 232.597656 60.714844 C 233.519531 61.472656 234.421875 62.25 235.304688 63.050781 C 236.191406 63.851562 237.054688 64.675781 237.898438 65.515625 C 238.742188 66.359375 239.5625 67.222656 240.363281 68.109375 C 241.164062 68.992188 241.941406 69.894531 242.699219 70.816406 C 243.457031 71.738281 244.191406 72.679688 244.898438 73.636719 C 245.609375 74.59375 246.296875 75.570312 246.960938 76.558594 C 247.621094 77.550781 248.261719 78.558594 248.875 79.582031 C 249.484375 80.605469 250.074219 81.640625 250.636719 82.695312 C 251.199219 83.746094 251.734375 84.8125 252.246094 85.890625 C 252.753906 86.96875 253.238281 88.058594 253.695312 89.160156 C 254.148438 90.261719 254.578125 91.371094 254.980469 92.496094 C 255.382812 93.617188 255.757812 94.75 256.101562 95.890625 C 256.449219 97.035156 256.765625 98.183594 257.058594 99.339844 C 257.347656 100.496094 257.609375 101.660156 257.839844 102.828125 C 258.074219 104 258.277344 105.171875 258.453125 106.351562 C 258.628906 107.53125 258.773438 108.714844 258.890625 109.902344 C 259.007812 111.089844 259.09375 112.277344 259.152344 113.46875 C 259.210938 114.660156 259.242188 115.851562 259.242188 117.046875 Z M 259.242188 117.046875 " fill-opacity="1" fill-rule="nonzero"/></g><g clip-path="url(#039a27b121)"><path fill="#ffffff" d="M 59.988281 348.863281 C 59.988281 279.0625 116.570312 222.476562 186.367188 222.476562 C 256.167969 222.476562 312.753906 279.0625 312.753906 348.863281 Z M 59.988281 348.863281 " fill-opacity="1" fill-rule="nonzero"/></g><g clip-path="url(#c1ddd3485e)"><path fill="#028900" d="M 237.71875 115.328125 C 237.71875 116.523438 237.6875 117.714844 237.628906 118.90625 C 237.570312 120.097656 237.484375 121.285156 237.367188 122.472656 C 237.25 123.660156 237.105469 124.84375 236.929688 126.023438 C 236.753906 127.203125 236.550781 128.375 236.316406 129.546875 C 236.085938 130.714844 235.824219 131.878906 235.535156 133.035156 C 235.246094 134.191406 234.925781 135.339844 234.582031 136.484375 C 234.234375 137.625 233.859375 138.757812 233.457031 139.878906 C 233.054688 141.003906 232.628906 142.113281 232.171875 143.214844 C 231.714844 144.316406 231.230469 145.40625 230.722656 146.484375 C 230.210938 147.5625 229.675781 148.628906 229.113281 149.679688 C 228.550781 150.734375 227.964844 151.769531 227.351562 152.792969 C 226.738281 153.816406 226.097656 154.824219 225.4375 155.816406 C 224.773438 156.804688 224.085938 157.78125 223.378906 158.738281 C 222.667969 159.695312 221.933594 160.636719 221.175781 161.558594 C 220.421875 162.480469 219.640625 163.382812 218.839844 164.265625 C 218.039062 165.152344 217.21875 166.015625 216.375 166.859375 C 215.53125 167.699219 214.667969 168.523438 213.785156 169.324219 C 212.898438 170.125 211.996094 170.902344 211.074219 171.660156 C 210.152344 172.417969 209.214844 173.152344 208.253906 173.859375 C 207.296875 174.570312 206.324219 175.257812 205.332031 175.921875 C 204.339844 176.582031 203.332031 177.222656 202.308594 177.835938 C 201.285156 178.445312 200.25 179.035156 199.199219 179.597656 C 198.144531 180.160156 197.082031 180.695312 196.003906 181.207031 C 194.925781 181.714844 193.835938 182.199219 192.734375 182.65625 C 191.628906 183.109375 190.519531 183.539062 189.394531 183.941406 C 188.273438 184.34375 187.140625 184.71875 186 185.0625 C 184.859375 185.410156 183.710938 185.726562 182.550781 186.019531 C 181.394531 186.308594 180.230469 186.570312 179.0625 186.800781 C 177.894531 187.035156 176.71875 187.238281 175.539062 187.414062 C 174.359375 187.585938 173.175781 187.734375 171.988281 187.851562 C 170.800781 187.96875 169.613281 188.054688 168.421875 188.113281 C 167.230469 188.171875 166.039062 188.203125 164.84375 188.203125 C 163.652344 188.203125 162.460938 188.171875 161.269531 188.113281 C 160.078125 188.054688 158.890625 187.96875 157.703125 187.851562 C 156.515625 187.734375 155.332031 187.585938 154.152344 187.414062 C 152.972656 187.238281 151.796875 187.035156 150.628906 186.800781 C 149.460938 186.570312 148.296875 186.308594 147.140625 186.019531 C 145.980469 185.726562 144.832031 185.410156 143.691406 185.0625 C 142.550781 184.71875 141.417969 184.34375 140.296875 183.941406 C 139.171875 183.539062 138.058594 183.109375 136.957031 182.65625 C 135.855469 182.199219 134.765625 181.714844 133.6875 181.207031 C 132.609375 180.695312 131.546875 180.160156 130.492188 179.597656 C 129.441406 179.035156 128.40625 178.445312 127.382812 177.835938 C 126.359375 177.222656 125.351562 176.582031 124.359375 175.921875 C 123.367188 175.257812 122.394531 174.570312 121.4375 173.859375 C 120.476562 173.152344 119.539062 172.417969 118.617188 171.660156 C 117.695312 170.902344 116.792969 170.125 115.90625 169.324219 C 115.023438 168.523438 114.160156 167.699219 113.316406 166.859375 C 112.472656 166.015625 111.652344 165.152344 110.851562 164.265625 C 110.050781 163.382812 109.269531 162.480469 108.515625 161.558594 C 107.757812 160.636719 107.023438 159.695312 106.3125 158.738281 C 105.605469 157.78125 104.917969 156.804688 104.253906 155.816406 C 103.59375 154.824219 102.953125 153.816406 102.339844 152.792969 C 101.726562 151.769531 101.140625 150.734375 100.578125 149.679688 C 100.015625 148.628906 99.480469 147.5625 98.96875 146.484375 C 98.460938 145.40625 97.976562 144.316406 97.519531 143.214844 C 97.0625 142.113281 96.636719 141.003906 96.234375 139.878906 C 95.832031 138.757812 95.457031 137.625 95.109375 136.484375 C 94.765625 135.339844 94.445312 134.191406 94.15625 133.035156 C 93.867188 131.878906 93.605469 130.714844 93.375 129.546875 C 93.140625 128.375 92.9375 127.203125 92.761719 126.023438 C 92.585938 124.84375 92.441406 123.660156 92.324219 122.472656 C 92.207031 121.285156 92.121094 120.097656 92.0625 118.90625 C 92.003906 117.714844 91.972656 116.523438 91.972656 115.328125 C 91.972656 114.136719 92.003906 112.945312 92.0625 111.753906 C 92.121094 110.5625 92.207031 109.375 92.324219 108.1875 C 92.441406 107 92.585938 105.816406 92.761719 104.636719 C 92.9375 103.457031 93.140625 102.28125 93.375 101.113281 C 93.605469 99.941406 93.867188 98.78125 94.15625 97.621094 C 94.445312 96.464844 94.765625 95.316406 95.109375 94.175781 C 95.457031 93.035156 95.832031 91.902344 96.234375 90.78125 C 96.636719 89.65625 97.0625 88.542969 97.519531 87.441406 C 97.976562 86.339844 98.460938 85.25 98.96875 84.171875 C 99.480469 83.09375 100.015625 82.03125 100.578125 80.976562 C 101.140625 79.925781 101.726562 78.886719 102.339844 77.867188 C 102.953125 76.84375 103.59375 75.835938 104.253906 74.84375 C 104.917969 73.851562 105.605469 72.878906 106.3125 71.917969 C 107.023438 70.960938 107.757812 70.023438 108.515625 69.101562 C 109.269531 68.175781 110.050781 67.273438 110.851562 66.390625 C 111.652344 65.507812 112.472656 64.644531 113.316406 63.800781 C 114.160156 62.957031 115.023438 62.136719 115.90625 61.335938 C 116.792969 60.535156 117.695312 59.753906 118.617188 59 C 119.539062 58.242188 120.476562 57.507812 121.4375 56.796875 C 122.394531 56.085938 123.367188 55.402344 124.359375 54.738281 C 125.351562 54.074219 126.359375 53.4375 127.382812 52.824219 C 128.40625 52.210938 129.441406 51.625 130.492188 51.0625 C 131.546875 50.5 132.609375 49.964844 133.6875 49.453125 C 134.765625 48.945312 135.855469 48.460938 136.957031 48.003906 C 138.058594 47.546875 139.171875 47.117188 140.296875 46.71875 C 141.417969 46.316406 142.550781 45.941406 143.691406 45.59375 C 144.832031 45.25 145.980469 44.929688 147.140625 44.640625 C 148.296875 44.351562 149.460938 44.089844 150.628906 43.855469 C 151.796875 43.625 152.972656 43.421875 154.152344 43.246094 C 155.332031 43.070312 156.515625 42.925781 157.703125 42.808594 C 158.890625 42.691406 160.078125 42.601562 161.269531 42.542969 C 162.460938 42.484375 163.652344 42.457031 164.84375 42.457031 C 166.039062 42.457031 167.230469 42.484375 168.421875 42.542969 C 169.613281 42.601562 170.800781 42.691406 171.988281 42.808594 C 173.175781 42.925781 174.359375 43.070312 175.539062 43.246094 C 176.71875 43.421875 177.894531 43.625 179.0625 43.855469 C 180.230469 44.089844 181.394531 44.351562 182.550781 44.640625 C 183.710938 44.929688 184.859375 45.25 186 45.59375 C 187.140625 45.941406 188.273438 46.316406 189.394531 46.71875 C 190.519531 47.117188 191.628906 47.546875 192.734375 48.003906 C 193.835938 48.460938 194.925781 48.945312 196.003906 49.453125 C 197.082031 49.964844 198.144531 50.5 199.199219 51.0625 C 200.25 51.625 201.285156 52.210938 202.308594 52.824219 C 203.332031 53.4375 204.339844 54.074219 205.332031 54.738281 C 206.324219 55.402344 207.296875 56.085938 208.253906 56.796875 C 209.214844 57.507812 210.152344 58.242188 211.074219 59 C 211.996094 59.753906 212.898438 60.535156 213.785156 61.335938 C 214.667969 62.136719 215.53125 62.957031 216.375 63.800781 C 217.21875 64.644531 218.039062 65.507812 218.839844 66.390625 C 219.640625 67.273438 220.421875 68.175781 221.175781 69.101562 C 221.933594 70.023438 222.667969 70.960938 223.378906 71.917969 C 224.085938 72.878906 224.773438 73.851562 225.4375 74.84375 C 226.097656 75.835938 226.738281 76.84375 227.351562 77.867188 C 227.964844 78.886719 228.550781 79.925781 229.113281 80.976562 C 229.675781 82.03125 230.210938 83.09375 230.722656 84.171875 C 231.230469 85.25 231.714844 86.339844 232.171875 87.441406 C 232.628906 88.542969 233.054688 89.65625 233.457031 90.78125 C 233.859375 91.902344 234.234375 93.035156 234.582031 94.175781 C 234.925781 95.316406 235.246094 96.464844 235.535156 97.621094 C 235.824219 98.78125 236.085938 99.941406 236.316406 101.113281 C 236.550781 102.28125 236.753906 103.457031 236.929688 104.636719 C 237.105469 105.816406 237.25 107 237.367188 108.1875 C 237.484375 109.375 237.570312 110.5625 237.628906 111.753906 C 237.6875 112.945312 237.71875 114.136719 237.71875 115.328125 Z M 237.71875 115.328125 " fill-opacity="1" fill-rule="nonzero"/></g><g clip-path="url(#0eb94e7ab3)"><path fill="#028900" d="M 38.464844 347.144531 C 38.464844 277.347656 95.046875 220.761719 164.84375 220.761719 C 234.644531 220.761719 291.230469 277.347656 291.230469 347.144531 Z M 38.464844 347.144531 " fill-opacity="1" fill-rule="nonzero"/></g></svg>