<svg xmlns="http://www.w3.org/2000/svg" xmlns:xlink="http://www.w3.org/1999/xlink" width="512" zoomAndPan="magnify" viewBox="0 0 384 383.999986" height="512" preserveAspectRatio="xMidYMid meet" version="1.0"><defs><clipPath id="267eb77165"><path d="M 86 280 L 296 280 L 296 338.425781 L 86 338.425781 Z M 86 280 " clip-rule="nonzero"/></clipPath><clipPath id="b9702c0587"><path d="M 95 180 L 303.605469 180 L 303.605469 240 L 95 240 Z M 95 180 " clip-rule="nonzero"/></clipPath><clipPath id="5785579e91"><path d="M 95 142 L 303.605469 142 L 303.605469 217 L 95 217 Z M 95 142 " clip-rule="nonzero"/></clipPath><clipPath id="cf42f6958c"><path d="M 74.855469 147 L 284 147 L 284 207 L 74.855469 207 Z M 74.855469 147 " clip-rule="nonzero"/></clipPath><clipPath id="4a179637cc"><path d="M 74.855469 109 L 284 109 L 284 183 L 74.855469 183 Z M 74.855469 109 " clip-rule="nonzero"/></clipPath><clipPath id="0285ce6f84"><path d="M 95 85 L 303.605469 85 L 303.605469 145 L 95 145 Z M 95 85 " clip-rule="nonzero"/></clipPath><clipPath id="ea7036022f"><path d="M 95 47.425781 L 303.605469 47.425781 L 303.605469 121 L 95 121 Z M 95 47.425781 " clip-rule="nonzero"/></clipPath></defs><g clip-path="url(#267eb77165)"><path fill="#028900" d="M 295.316406 301.953125 L 295.316406 280.09375 L 86.953125 280.09375 L 86.953125 301.953125 C 86.953125 322.207031 133.597656 338.621094 191.136719 338.621094 C 248.667969 338.621094 295.316406 322.207031 295.316406 301.953125 " fill-opacity="1" fill-rule="nonzero"/></g><path fill="#028900" d="M 191.136719 315.144531 C 133.597656 315.144531 86.953125 298.730469 86.953125 278.480469 C 86.953125 258.226562 133.597656 241.8125 191.136719 241.8125 C 248.667969 241.8125 295.316406 258.226562 295.316406 278.480469 C 295.316406 298.730469 248.667969 315.144531 191.136719 315.144531 " fill-opacity="1" fill-rule="nonzero"/><path fill="#028900" d="M 197.40625 292.792969 C 201.582031 292.519531 204.984375 291.835938 207.601562 290.746094 C 210.226562 289.660156 211.535156 288.375 211.535156 286.910156 C 211.535156 285.59375 210.4375 284.457031 208.230469 283.507812 C 206.027344 282.558594 202.429688 281.820312 197.40625 281.3125 L 197.40625 292.792969 M 185.285156 261.492188 C 182 261.878906 179.375 262.542969 177.425781 263.480469 C 175.46875 264.4375 174.496094 265.46875 174.496094 266.605469 C 174.496094 267.652344 175.394531 268.609375 177.171875 269.507812 C 178.957031 270.394531 181.652344 271.121094 185.285156 271.667969 L 185.285156 261.492188 M 185.285156 292.375 L 185.285156 280.046875 C 174.359375 278.949219 166.355469 277.292969 161.25 275.0625 C 156.148438 272.839844 153.601562 270.140625 153.601562 266.964844 C 153.601562 263.742188 156.480469 261.039062 162.253906 258.855469 C 168.011719 256.664062 175.695312 255.410156 185.285156 255.078125 L 185.285156 252.160156 L 197.40625 252.160156 L 197.40625 255.078125 C 206.261719 255.445312 213.304688 256.515625 218.550781 258.265625 C 223.800781 260.023438 227.140625 262.367188 228.582031 265.316406 L 207.433594 266.285156 C 206.152344 263.96875 202.804688 262.402344 197.40625 261.578125 L 197.40625 273.082031 C 210.785156 274.347656 219.902344 276.007812 224.742188 278.035156 C 229.59375 280.066406 232.011719 282.671875 232.011719 285.847656 C 232.011719 289.402344 228.96875 292.390625 222.875 294.820312 C 216.757812 297.257812 208.273438 298.742188 197.40625 299.300781 L 197.40625 304.796875 L 185.285156 304.796875 L 185.285156 299.441406 C 175.636719 299.03125 167.804688 297.765625 161.789062 295.644531 C 155.773438 293.523438 151.929688 290.539062 150.253906 286.675781 L 172.070312 285.847656 C 172.972656 287.414062 174.636719 288.769531 177.097656 289.914062 C 179.539062 291.042969 182.273438 291.871094 185.285156 292.375 " fill-opacity="1" fill-rule="nonzero"/><path fill="#ffffff" d="M 283.546875 316.640625 L 283.523438 316.59375 L 283.523438 296.804688 C 284.761719 295.964844 285.921875 295.121094 286.972656 294.257812 L 286.972656 313.847656 C 285.933594 314.796875 284.804688 315.730469 283.546875 316.640625 " fill-opacity="1" fill-rule="nonzero"/><path fill="#ffffff" d="M 278.359375 319.929688 C 277.9375 319.820312 277.644531 319.648438 277.644531 319.449219 L 277.644531 300.296875 C 278.859375 299.664062 280 299.003906 281.097656 298.347656 L 281.097656 318.292969 C 280.226562 318.851562 279.308594 319.394531 278.359375 319.929688 " fill-opacity="1" fill-rule="nonzero"/><path fill="#ffffff" d="M 289.398438 311.398438 L 289.398438 292.046875 C 290.789062 290.664062 291.941406 289.234375 292.851562 287.777344 L 292.851562 305.847656 C 292.105469 307.742188 290.957031 309.601562 289.398438 311.398438 " fill-opacity="1" fill-rule="nonzero"/><path fill="#ffffff" d="M 272.648438 322.828125 C 272.136719 322.722656 271.757812 322.535156 271.757812 322.308594 L 271.757812 303.082031 C 272.960938 302.566406 274.105469 302.039062 275.21875 301.503906 L 275.21875 321.597656 C 274.386719 322.011719 273.53125 322.429688 272.648438 322.828125 " fill-opacity="1" fill-rule="nonzero"/><path fill="#ffffff" d="M 266.210938 325.511719 C 266.023438 325.40625 265.886719 325.296875 265.886719 325.167969 L 265.886719 305.386719 C 267.070312 304.964844 268.21875 304.519531 269.34375 304.078125 L 269.34375 324.265625 C 268.324219 324.6875 267.28125 325.101562 266.210938 325.511719 " fill-opacity="1" fill-rule="nonzero"/><path fill="#ffffff" d="M 260.011719 327.65625 L 260.011719 307.355469 C 261.1875 307 262.339844 306.617188 263.46875 306.238281 L 263.46875 326.507812 C 262.339844 326.90625 261.195312 327.289062 260.011719 327.65625 " fill-opacity="1" fill-rule="nonzero"/><path fill="#ffffff" d="M 254.132812 329.382812 L 254.132812 309.0625 C 255.300781 308.746094 256.460938 308.429688 257.585938 308.105469 L 257.585938 328.402344 C 256.457031 328.742188 255.304688 329.070312 254.132812 329.382812 " fill-opacity="1" fill-rule="nonzero"/><path fill="#ffffff" d="M 248.253906 330.894531 L 248.253906 310.519531 C 249.429688 310.25 250.574219 309.96875 251.714844 309.679688 L 251.714844 330.03125 C 250.574219 330.328125 249.429688 330.613281 248.253906 330.894531 " fill-opacity="1" fill-rule="nonzero"/><path fill="#ffffff" d="M 242.378906 332.171875 L 242.378906 311.78125 C 243.542969 311.550781 244.695312 311.3125 245.828125 311.066406 L 245.828125 331.433594 C 244.695312 331.691406 243.542969 331.933594 242.378906 332.171875 " fill-opacity="1" fill-rule="nonzero"/><path fill="#ffffff" d="M 236.507812 333.28125 L 236.507812 312.875 C 237.667969 312.671875 238.816406 312.472656 239.957031 312.25 L 239.957031 332.65625 C 238.816406 332.871094 237.660156 333.078125 236.507812 333.28125 " fill-opacity="1" fill-rule="nonzero"/><path fill="#ffffff" d="M 230.625 334.222656 L 230.625 313.792969 C 231.785156 313.628906 232.9375 313.453125 234.074219 313.261719 L 234.074219 333.679688 C 232.9375 333.867188 231.785156 334.050781 230.625 334.222656 " fill-opacity="1" fill-rule="nonzero"/><path fill="#ffffff" d="M 151.652344 334.222656 C 150.484375 334.050781 149.332031 333.867188 148.199219 333.679688 L 148.199219 313.261719 C 149.332031 313.453125 150.484375 313.628906 151.652344 313.792969 L 151.652344 334.222656 " fill-opacity="1" fill-rule="nonzero"/><path fill="#ffffff" d="M 145.765625 333.28125 C 144.605469 333.078125 143.449219 332.871094 142.316406 332.65625 L 142.316406 312.25 C 143.457031 312.472656 144.601562 312.671875 145.765625 312.875 L 145.765625 333.28125 " fill-opacity="1" fill-rule="nonzero"/><path fill="#ffffff" d="M 139.886719 332.171875 C 138.726562 331.933594 137.574219 331.691406 136.4375 331.433594 L 136.4375 311.066406 C 137.574219 311.3125 138.726562 311.550781 139.886719 311.78125 L 139.886719 332.171875 " fill-opacity="1" fill-rule="nonzero"/><path fill="#ffffff" d="M 134.015625 330.894531 C 132.84375 330.613281 131.691406 330.328125 130.558594 330.03125 L 130.558594 309.679688 C 131.691406 309.96875 132.84375 310.25 134.015625 310.519531 L 134.015625 330.894531 " fill-opacity="1" fill-rule="nonzero"/><path fill="#ffffff" d="M 128.136719 329.382812 C 126.964844 329.070312 125.8125 328.742188 124.679688 328.402344 L 124.679688 308.105469 C 125.808594 308.429688 126.96875 308.746094 128.136719 309.0625 L 128.136719 329.382812 " fill-opacity="1" fill-rule="nonzero"/><path fill="#ffffff" d="M 181.03125 336.816406 C 179.871094 336.777344 178.730469 336.726562 177.582031 336.675781 L 177.582031 316.207031 C 178.730469 316.261719 179.871094 316.3125 181.03125 316.351562 L 181.03125 336.816406 " fill-opacity="1" fill-rule="nonzero"/><path fill="#ffffff" d="M 175.15625 336.554688 C 173.996094 336.496094 172.847656 336.414062 171.699219 336.339844 L 171.699219 315.882812 C 172.847656 315.953125 173.996094 316.039062 175.15625 316.101562 L 175.15625 336.554688 " fill-opacity="1" fill-rule="nonzero"/><path fill="#ffffff" d="M 186.910156 336.964844 C 185.753906 336.941406 184.597656 336.910156 183.457031 336.886719 L 183.457031 316.417969 C 184.597656 316.445312 185.753906 316.46875 186.910156 316.488281 L 186.910156 336.964844 " fill-opacity="1" fill-rule="nonzero"/><path fill="#ffffff" d="M 191.136719 337 C 190.53125 337 189.929688 336.984375 189.335938 336.976562 L 189.335938 316.507812 C 189.929688 316.515625 190.53125 316.523438 191.136719 316.523438 C 191.6875 316.523438 192.238281 316.519531 192.785156 316.515625 L 192.785156 336.976562 C 192.238281 336.984375 191.6875 337 191.136719 337 " fill-opacity="1" fill-rule="nonzero"/><path fill="#ffffff" d="M 195.214844 336.964844 L 195.214844 316.488281 C 196.363281 316.476562 197.515625 316.453125 198.667969 316.425781 L 198.667969 336.890625 C 197.515625 336.917969 196.363281 336.941406 195.214844 336.964844 " fill-opacity="1" fill-rule="nonzero"/><path fill="#ffffff" d="M 201.089844 336.820312 L 201.089844 316.363281 C 202.25 316.316406 203.394531 316.265625 204.542969 316.210938 L 204.542969 336.679688 C 203.394531 336.730469 202.25 336.785156 201.089844 336.820312 " fill-opacity="1" fill-rule="nonzero"/><path fill="#ffffff" d="M 206.96875 336.566406 L 206.96875 316.105469 C 208.125 316.046875 209.269531 315.964844 210.421875 315.886719 L 210.421875 336.347656 C 209.269531 336.425781 208.125 336.503906 206.96875 336.566406 " fill-opacity="1" fill-rule="nonzero"/><path fill="#ffffff" d="M 212.839844 336.175781 L 212.839844 315.71875 C 214 315.636719 215.152344 315.546875 216.296875 315.445312 L 216.296875 335.898438 C 215.160156 335.996094 214 336.089844 212.839844 336.175781 " fill-opacity="1" fill-rule="nonzero"/><path fill="#ffffff" d="M 218.71875 335.664062 L 218.71875 315.21875 C 219.878906 315.109375 221.035156 315 222.175781 314.871094 L 222.175781 335.308594 C 221.035156 335.4375 219.878906 335.550781 218.71875 335.664062 " fill-opacity="1" fill-rule="nonzero"/><path fill="#ffffff" d="M 224.59375 335.019531 L 224.59375 314.585938 C 225.753906 314.445312 226.910156 314.300781 228.050781 314.144531 L 228.050781 334.585938 C 226.910156 334.734375 225.753906 334.875 224.59375 335.019531 " fill-opacity="1" fill-rule="nonzero"/><path fill="#ffffff" d="M 169.277344 336.167969 C 168.121094 336.074219 166.972656 335.988281 165.820312 335.886719 L 165.820312 315.4375 C 166.972656 315.53125 168.121094 315.625 169.277344 315.710938 L 169.277344 336.167969 " fill-opacity="1" fill-rule="nonzero"/><path fill="#ffffff" d="M 163.40625 335.648438 C 162.242188 335.535156 161.085938 335.417969 159.945312 335.296875 L 159.945312 314.847656 C 161.085938 314.976562 162.242188 315.089844 163.40625 315.203125 L 163.40625 335.648438 " fill-opacity="1" fill-rule="nonzero"/><path fill="#ffffff" d="M 157.523438 335 C 156.363281 334.863281 155.210938 334.710938 154.066406 334.554688 L 154.066406 314.128906 C 155.207031 314.28125 156.363281 314.425781 157.523438 314.566406 L 157.523438 335 " fill-opacity="1" fill-rule="nonzero"/><path fill="#ffffff" d="M 122.257812 327.65625 C 121.078125 327.289062 119.925781 326.90625 118.800781 326.507812 L 118.800781 306.238281 C 119.925781 306.617188 121.085938 307 122.257812 307.355469 L 122.257812 327.65625 " fill-opacity="1" fill-rule="nonzero"/><path fill="#ffffff" d="M 116.054688 325.511719 C 114.992188 325.101562 113.941406 324.6875 112.925781 324.265625 L 112.925781 304.078125 C 114.050781 304.519531 115.199219 304.964844 116.382812 305.386719 L 116.382812 325.167969 C 116.382812 325.296875 116.246094 325.40625 116.054688 325.511719 " fill-opacity="1" fill-rule="nonzero"/><path fill="#ffffff" d="M 109.621094 322.828125 C 108.734375 322.429688 107.882812 322.011719 107.050781 321.597656 L 107.050781 301.503906 C 108.167969 302.039062 109.308594 302.566406 110.503906 303.082031 L 110.503906 322.308594 C 110.503906 322.535156 110.128906 322.722656 109.621094 322.828125 " fill-opacity="1" fill-rule="nonzero"/><path fill="#ffffff" d="M 103.90625 319.929688 C 102.964844 319.394531 102.042969 318.851562 101.175781 318.292969 L 101.175781 298.347656 C 102.269531 299.003906 103.410156 299.664062 104.628906 300.296875 L 104.628906 319.449219 C 104.628906 319.648438 104.332031 319.820312 103.90625 319.929688 " fill-opacity="1" fill-rule="nonzero"/><path fill="#ffffff" d="M 98.726562 316.640625 C 97.464844 315.730469 96.335938 314.796875 95.292969 313.847656 L 95.292969 294.257812 C 96.351562 295.121094 97.515625 295.964844 98.746094 296.804688 L 98.746094 316.59375 L 98.726562 316.640625 " fill-opacity="1" fill-rule="nonzero"/><path fill="#ffffff" d="M 92.871094 311.398438 C 91.3125 309.601562 90.164062 307.75 89.414062 305.847656 L 89.414062 287.777344 C 90.328125 289.234375 91.484375 290.664062 92.871094 292.046875 L 92.871094 311.398438 " fill-opacity="1" fill-rule="nonzero"/><path fill="#028900" d="M 299.394531 271.433594 L 299.394531 249.566406 L 91.03125 249.566406 L 91.03125 271.433594 C 91.03125 291.683594 137.675781 308.105469 195.214844 308.105469 C 252.75 308.105469 299.394531 291.683594 299.394531 271.433594 " fill-opacity="1" fill-rule="nonzero"/><path fill="#028900" d="M 195.214844 284.621094 C 137.675781 284.621094 91.03125 268.210938 91.03125 247.957031 C 91.03125 227.710938 137.675781 211.292969 195.214844 211.292969 C 252.75 211.292969 299.394531 227.710938 299.394531 247.957031 C 299.394531 268.210938 252.75 284.621094 195.214844 284.621094 " fill-opacity="1" fill-rule="nonzero"/><path fill="#028900" d="M 201.488281 262.269531 C 205.660156 261.996094 209.054688 261.3125 211.679688 260.226562 C 214.300781 259.140625 215.613281 257.859375 215.613281 256.390625 C 215.613281 255.078125 214.511719 253.941406 212.304688 252.988281 C 210.101562 252.035156 206.507812 251.300781 201.488281 250.792969 L 201.488281 262.269531 M 189.363281 230.964844 C 186.074219 231.355469 183.449219 232.023438 181.503906 232.964844 C 179.554688 233.910156 178.578125 234.949219 178.578125 236.089844 C 178.578125 237.128906 179.46875 238.097656 181.253906 238.984375 C 183.039062 239.871094 185.734375 240.59375 189.363281 241.144531 L 189.363281 230.964844 M 189.363281 261.863281 L 189.363281 249.535156 C 178.441406 248.429688 170.429688 246.773438 165.324219 244.539062 C 160.230469 242.320312 157.675781 239.617188 157.675781 236.4375 C 157.675781 233.21875 160.566406 230.515625 166.328125 228.332031 C 172.089844 226.144531 179.777344 224.886719 189.363281 224.554688 L 189.363281 221.640625 L 201.488281 221.640625 L 201.488281 224.554688 C 210.34375 224.921875 217.382812 225.988281 222.632812 227.742188 C 227.875 229.496094 231.21875 231.847656 232.660156 234.792969 L 211.511719 235.769531 C 210.234375 233.445312 206.882812 231.878906 201.488281 231.058594 L 201.488281 242.5625 C 214.859375 243.832031 223.980469 245.488281 228.820312 247.515625 C 233.671875 249.546875 236.089844 252.148438 236.089844 255.324219 C 236.089844 258.875 233.035156 261.871094 226.945312 264.296875 C 220.832031 266.734375 212.351562 268.222656 201.488281 268.773438 L 201.488281 274.277344 L 189.363281 274.277344 L 189.363281 268.917969 C 179.71875 268.511719 171.886719 267.25 165.863281 265.125 C 159.851562 263 156.011719 260.015625 154.332031 256.15625 L 176.152344 255.324219 C 177.046875 256.898438 178.710938 258.25 181.167969 259.394531 C 183.617188 260.523438 186.347656 261.347656 189.363281 261.863281 " fill-opacity="1" fill-rule="nonzero"/><path fill="#ffffff" d="M 287.625 286.121094 L 287.597656 286.070312 L 287.597656 266.285156 C 288.832031 265.449219 289.996094 264.601562 291.058594 263.734375 L 291.058594 283.328125 C 290.011719 284.273438 288.882812 285.207031 287.625 286.121094 " fill-opacity="1" fill-rule="nonzero"/><path fill="#ffffff" d="M 282.4375 289.410156 C 282.015625 289.292969 281.71875 289.128906 281.71875 288.929688 L 281.71875 269.777344 C 282.9375 269.140625 284.074219 268.492188 285.175781 267.824219 L 285.175781 287.773438 C 284.304688 288.328125 283.386719 288.875 282.4375 289.410156 " fill-opacity="1" fill-rule="nonzero"/><path fill="#ffffff" d="M 293.480469 280.875 L 293.480469 261.535156 C 294.863281 260.144531 296.015625 258.714844 296.929688 257.261719 L 296.929688 275.328125 C 296.183594 277.21875 295.027344 279.082031 293.480469 280.875 " fill-opacity="1" fill-rule="nonzero"/><path fill="#ffffff" d="M 276.730469 292.308594 C 276.210938 292.199219 275.839844 292.015625 275.839844 291.789062 L 275.839844 272.554688 C 277.042969 272.042969 278.183594 271.519531 279.300781 270.980469 L 279.300781 291.074219 C 278.464844 291.492188 277.613281 291.90625 276.730469 292.308594 " fill-opacity="1" fill-rule="nonzero"/><path fill="#ffffff" d="M 270.289062 294.984375 C 270.105469 294.886719 269.96875 294.773438 269.96875 294.644531 L 269.96875 274.867188 C 271.148438 274.441406 272.300781 273.996094 273.421875 273.550781 L 273.421875 293.75 C 272.402344 294.167969 271.363281 294.578125 270.289062 294.984375 " fill-opacity="1" fill-rule="nonzero"/><path fill="#ffffff" d="M 264.089844 297.140625 L 264.089844 276.835938 C 265.261719 276.476562 266.421875 276.105469 267.546875 275.71875 L 267.546875 295.988281 C 266.421875 296.382812 265.269531 296.769531 264.089844 297.140625 " fill-opacity="1" fill-rule="nonzero"/><path fill="#ffffff" d="M 258.210938 298.867188 L 258.210938 278.539062 C 259.378906 278.230469 260.539062 277.910156 261.664062 277.582031 L 261.664062 297.882812 C 260.535156 298.214844 259.386719 298.542969 258.210938 298.867188 " fill-opacity="1" fill-rule="nonzero"/><path fill="#ffffff" d="M 252.332031 300.371094 L 252.332031 280 C 253.507812 279.726562 254.648438 279.445312 255.792969 279.164062 L 255.792969 299.515625 C 254.648438 299.800781 253.507812 300.09375 252.332031 300.371094 " fill-opacity="1" fill-rule="nonzero"/><path fill="#ffffff" d="M 246.457031 301.648438 L 246.457031 281.265625 C 247.617188 281.027344 248.777344 280.796875 249.910156 280.542969 L 249.910156 300.917969 C 248.777344 301.167969 247.617188 301.410156 246.457031 301.648438 " fill-opacity="1" fill-rule="nonzero"/><path fill="#ffffff" d="M 240.585938 302.757812 L 240.585938 282.355469 C 241.742188 282.160156 242.890625 281.949219 244.035156 281.738281 L 244.035156 302.136719 C 242.898438 302.355469 241.742188 302.554688 240.585938 302.757812 " fill-opacity="1" fill-rule="nonzero"/><path fill="#ffffff" d="M 234.703125 303.703125 L 234.703125 283.273438 C 235.863281 283.109375 237.015625 282.929688 238.15625 282.742188 L 238.15625 303.167969 C 237.015625 303.347656 235.863281 303.53125 234.703125 303.703125 " fill-opacity="1" fill-rule="nonzero"/><path fill="#ffffff" d="M 155.722656 303.703125 C 154.5625 303.53125 153.410156 303.347656 152.273438 303.167969 L 152.273438 282.742188 C 153.410156 282.929688 154.5625 283.109375 155.722656 283.273438 L 155.722656 303.703125 " fill-opacity="1" fill-rule="nonzero"/><path fill="#ffffff" d="M 149.847656 302.757812 C 148.683594 302.554688 147.527344 302.355469 146.394531 302.136719 L 146.394531 281.738281 C 147.539062 281.949219 148.683594 282.160156 149.847656 282.355469 L 149.847656 302.757812 " fill-opacity="1" fill-rule="nonzero"/><path fill="#ffffff" d="M 143.96875 301.648438 C 142.804688 301.410156 141.648438 301.167969 140.515625 300.917969 L 140.515625 280.542969 C 141.648438 280.796875 142.804688 281.027344 143.96875 281.265625 L 143.96875 301.648438 " fill-opacity="1" fill-rule="nonzero"/><path fill="#ffffff" d="M 138.09375 300.371094 C 136.921875 300.09375 135.773438 299.800781 134.632812 299.515625 L 134.632812 279.164062 C 135.773438 279.445312 136.921875 279.726562 138.09375 280 L 138.09375 300.371094 " fill-opacity="1" fill-rule="nonzero"/><path fill="#ffffff" d="M 132.214844 298.867188 C 131.042969 298.542969 129.886719 298.214844 128.761719 297.882812 L 128.761719 277.582031 C 129.882812 277.910156 131.046875 278.230469 132.214844 278.539062 L 132.214844 298.867188 " fill-opacity="1" fill-rule="nonzero"/><path fill="#ffffff" d="M 185.109375 306.300781 C 183.949219 306.253906 182.804688 306.203125 181.652344 306.148438 L 181.652344 285.6875 C 182.804688 285.742188 183.949219 285.789062 185.109375 285.835938 L 185.109375 306.300781 " fill-opacity="1" fill-rule="nonzero"/><path fill="#ffffff" d="M 179.234375 306.035156 C 178.078125 305.976562 176.929688 305.898438 175.78125 305.816406 L 175.78125 285.355469 C 176.929688 285.4375 178.078125 285.515625 179.234375 285.578125 L 179.234375 306.035156 " fill-opacity="1" fill-rule="nonzero"/><path fill="#ffffff" d="M 190.988281 306.441406 C 189.828125 306.417969 188.679688 306.394531 187.539062 306.363281 L 187.539062 285.898438 C 188.679688 285.929688 189.828125 285.953125 190.988281 285.96875 L 190.988281 306.441406 " fill-opacity="1" fill-rule="nonzero"/><path fill="#ffffff" d="M 195.214844 306.472656 C 194.605469 306.472656 194.011719 306.460938 193.410156 306.457031 L 193.410156 285.988281 C 194.011719 285.996094 194.605469 286.007812 195.214844 286.007812 C 195.765625 286.007812 196.3125 286 196.867188 285.996094 L 196.867188 306.457031 C 196.3125 306.460938 195.765625 306.472656 195.214844 306.472656 " fill-opacity="1" fill-rule="nonzero"/><path fill="#ffffff" d="M 199.292969 306.441406 L 199.292969 285.96875 C 200.441406 285.953125 201.597656 285.933594 202.746094 285.898438 L 202.746094 306.367188 C 201.597656 306.398438 200.441406 306.417969 199.292969 306.441406 " fill-opacity="1" fill-rule="nonzero"/><path fill="#ffffff" d="M 205.167969 306.304688 L 205.167969 285.839844 C 206.324219 285.796875 207.472656 285.742188 208.617188 285.691406 L 208.617188 306.152344 C 207.472656 306.210938 206.324219 306.265625 205.167969 306.304688 " fill-opacity="1" fill-rule="nonzero"/><path fill="#ffffff" d="M 211.046875 306.042969 L 211.046875 285.585938 C 212.210938 285.523438 213.347656 285.445312 214.5 285.367188 L 214.5 305.828125 C 213.347656 305.902344 212.210938 305.980469 211.046875 306.042969 " fill-opacity="1" fill-rule="nonzero"/><path fill="#ffffff" d="M 216.921875 305.652344 L 216.921875 285.207031 C 218.082031 285.113281 219.230469 285.023438 220.375 284.921875 L 220.375 305.378906 C 219.234375 305.480469 218.082031 305.574219 216.921875 305.652344 " fill-opacity="1" fill-rule="nonzero"/><path fill="#ffffff" d="M 222.792969 305.140625 L 222.792969 284.695312 C 223.957031 284.585938 225.117188 284.476562 226.253906 284.347656 L 226.253906 304.785156 C 225.117188 304.917969 223.957031 305.027344 222.792969 305.140625 " fill-opacity="1" fill-rule="nonzero"/><path fill="#ffffff" d="M 228.671875 304.5 L 228.671875 284.0625 C 229.839844 283.925781 230.992188 283.78125 232.128906 283.628906 L 232.128906 304.0625 C 230.992188 304.214844 229.839844 304.359375 228.671875 304.5 " fill-opacity="1" fill-rule="nonzero"/><path fill="#ffffff" d="M 173.351562 305.648438 C 172.199219 305.558594 171.042969 305.464844 169.898438 305.367188 L 169.898438 284.914062 C 171.042969 285.011719 172.199219 285.109375 173.351562 285.191406 L 173.351562 305.648438 " fill-opacity="1" fill-rule="nonzero"/><path fill="#ffffff" d="M 167.480469 305.125 C 166.316406 305.015625 165.167969 304.902344 164.023438 304.777344 L 164.023438 284.332031 C 165.167969 284.457031 166.316406 284.570312 167.480469 284.6875 L 167.480469 305.125 " fill-opacity="1" fill-rule="nonzero"/><path fill="#ffffff" d="M 161.601562 304.480469 C 160.441406 304.339844 159.289062 304.191406 158.148438 304.03125 L 158.148438 283.609375 C 159.289062 283.765625 160.441406 283.90625 161.601562 284.042969 L 161.601562 304.480469 " fill-opacity="1" fill-rule="nonzero"/><path fill="#ffffff" d="M 126.335938 297.140625 C 125.160156 296.769531 124.007812 296.382812 122.878906 295.988281 L 122.878906 275.71875 C 124.007812 276.105469 125.164062 276.476562 126.335938 276.835938 L 126.335938 297.140625 " fill-opacity="1" fill-rule="nonzero"/><path fill="#ffffff" d="M 120.136719 294.984375 C 119.066406 294.578125 118.019531 294.167969 117.007812 293.75 L 117.007812 273.550781 C 118.125 273.996094 119.277344 274.441406 120.460938 274.867188 L 120.460938 294.644531 C 120.460938 294.773438 120.320312 294.886719 120.136719 294.984375 " fill-opacity="1" fill-rule="nonzero"/><path fill="#ffffff" d="M 113.695312 292.308594 C 112.808594 291.90625 111.960938 291.492188 111.125 291.074219 L 111.125 270.980469 C 112.242188 271.519531 113.390625 272.042969 114.585938 272.554688 L 114.585938 291.789062 C 114.585938 292.015625 114.214844 292.199219 113.695312 292.308594 " fill-opacity="1" fill-rule="nonzero"/><path fill="#ffffff" d="M 107.988281 289.410156 C 107.039062 288.875 106.121094 288.328125 105.25 287.773438 L 105.25 267.824219 C 106.347656 268.492188 107.492188 269.140625 108.699219 269.777344 L 108.699219 288.929688 C 108.699219 289.128906 108.410156 289.292969 107.988281 289.410156 " fill-opacity="1" fill-rule="nonzero"/><path fill="#ffffff" d="M 102.800781 286.121094 C 101.542969 285.207031 100.410156 284.273438 99.371094 283.328125 L 99.371094 263.734375 C 100.429688 264.601562 101.589844 265.449219 102.832031 266.285156 L 102.832031 286.070312 L 102.800781 286.121094 " fill-opacity="1" fill-rule="nonzero"/><path fill="#ffffff" d="M 96.949219 280.875 C 95.394531 279.082031 94.242188 277.230469 93.496094 275.328125 L 93.496094 258.386719 C 93.964844 258.691406 94.445312 258.992188 94.9375 259.292969 C 95.542969 260.046875 96.214844 260.796875 96.949219 261.535156 L 96.949219 280.875 " fill-opacity="1" fill-rule="nonzero"/><path fill="#028900" d="M 289.289062 240.914062 L 289.289062 219.046875 L 80.929688 219.046875 L 80.929688 240.914062 C 80.929688 261.167969 127.574219 277.582031 185.109375 277.582031 C 242.644531 277.582031 289.289062 261.167969 289.289062 240.914062 " fill-opacity="1" fill-rule="nonzero"/><path fill="#028900" d="M 185.109375 254.105469 C 127.574219 254.105469 80.929688 237.6875 80.929688 217.4375 C 80.929688 197.1875 127.574219 180.769531 185.109375 180.769531 C 242.644531 180.769531 289.289062 197.1875 289.289062 217.4375 C 289.289062 237.6875 242.644531 254.105469 185.109375 254.105469 " fill-opacity="1" fill-rule="nonzero"/><path fill="#028900" d="M 191.378906 231.753906 C 195.554688 231.472656 198.957031 230.796875 201.582031 229.703125 C 204.195312 228.617188 205.5 227.335938 205.5 225.867188 C 205.5 224.554688 204.40625 223.417969 202.207031 222.472656 C 200 221.519531 196.40625 220.78125 191.378906 220.273438 L 191.378906 231.753906 M 179.257812 200.445312 C 175.96875 200.839844 173.347656 201.503906 171.402344 202.445312 C 169.449219 203.386719 168.472656 204.425781 168.472656 205.566406 C 168.472656 206.613281 169.367188 207.574219 171.148438 208.460938 C 172.933594 209.355469 175.628906 210.078125 179.257812 210.625 L 179.257812 200.445312 M 179.257812 231.339844 L 179.257812 219.011719 C 168.335938 217.910156 160.328125 216.253906 155.222656 214.023438 C 150.125 211.796875 147.574219 209.097656 147.574219 205.917969 C 147.574219 202.703125 150.457031 199.996094 156.230469 197.804688 C 161.992188 195.625 169.671875 194.363281 179.257812 194.03125 L 179.257812 191.121094 L 191.378906 191.121094 L 191.378906 194.03125 C 200.242188 194.40625 207.28125 195.464844 212.527344 197.222656 C 217.773438 198.976562 221.113281 201.324219 222.558594 204.269531 L 201.410156 205.242188 C 200.128906 202.921875 196.78125 201.355469 191.378906 200.539062 L 191.378906 212.039062 C 204.757812 213.308594 213.875 214.964844 218.71875 216.992188 C 223.566406 219.027344 225.988281 221.625 225.988281 224.804688 C 225.988281 228.359375 222.941406 231.34375 216.847656 233.777344 C 210.734375 236.210938 202.25 237.699219 191.378906 238.253906 L 191.378906 243.753906 L 179.257812 243.753906 L 179.257812 238.402344 C 169.617188 237.988281 161.78125 236.726562 155.761719 234.605469 C 149.742188 232.488281 145.90625 229.492188 144.230469 225.628906 L 166.046875 224.804688 C 166.945312 226.375 168.613281 227.722656 171.066406 228.867188 C 173.515625 230 176.25 230.824219 179.257812 231.339844 " fill-opacity="1" fill-rule="nonzero"/><path fill="#ffffff" d="M 277.519531 255.597656 L 277.496094 255.554688 L 277.496094 235.769531 C 278.730469 234.925781 279.894531 234.078125 280.949219 233.207031 L 280.949219 252.808594 C 279.910156 253.753906 278.777344 254.691406 277.519531 255.597656 " fill-opacity="1" fill-rule="nonzero"/><path fill="#ffffff" d="M 272.335938 258.890625 C 271.914062 258.773438 271.613281 258.605469 271.613281 258.414062 L 271.613281 239.253906 C 272.835938 238.621094 273.972656 237.964844 275.074219 237.304688 L 275.074219 257.25 C 274.203125 257.808594 273.28125 258.355469 272.335938 258.890625 " fill-opacity="1" fill-rule="nonzero"/><path fill="#ffffff" d="M 283.375 250.351562 L 283.375 231.011719 C 284.765625 229.617188 285.917969 228.195312 286.824219 226.742188 L 286.824219 244.804688 C 286.078125 246.707031 284.929688 248.5625 283.375 250.351562 " fill-opacity="1" fill-rule="nonzero"/><path fill="#ffffff" d="M 266.621094 261.785156 C 266.109375 261.679688 265.738281 261.492188 265.738281 261.269531 L 265.738281 242.035156 C 266.933594 241.523438 268.082031 240.996094 269.191406 240.457031 L 269.191406 260.558594 C 268.363281 260.972656 267.507812 261.382812 266.621094 261.785156 " fill-opacity="1" fill-rule="nonzero"/><path fill="#ffffff" d="M 260.1875 264.460938 C 259.996094 264.363281 259.859375 264.25 259.859375 264.125 L 259.859375 244.347656 C 261.046875 243.917969 262.195312 243.484375 263.316406 243.035156 L 263.316406 263.226562 C 262.300781 263.648438 261.253906 264.066406 260.1875 264.460938 " fill-opacity="1" fill-rule="nonzero"/><path fill="#ffffff" d="M 253.984375 266.621094 L 253.984375 246.320312 C 255.160156 245.957031 256.3125 245.578125 257.441406 245.191406 L 257.441406 265.46875 C 256.3125 265.867188 255.164062 266.25 253.984375 266.621094 " fill-opacity="1" fill-rule="nonzero"/><path fill="#ffffff" d="M 248.109375 268.34375 L 248.109375 248.023438 C 249.273438 247.707031 250.4375 247.390625 251.566406 247.058594 L 251.566406 267.355469 C 250.429688 267.695312 249.277344 268.019531 248.109375 268.34375 " fill-opacity="1" fill-rule="nonzero"/><path fill="#ffffff" d="M 242.230469 269.851562 L 242.230469 249.480469 C 243.402344 249.210938 244.546875 248.925781 245.683594 248.640625 L 245.683594 268.992188 C 244.546875 269.285156 243.402344 269.574219 242.230469 269.851562 " fill-opacity="1" fill-rule="nonzero"/><path fill="#ffffff" d="M 236.355469 271.125 L 236.355469 250.742188 C 237.511719 250.507812 238.671875 250.273438 239.804688 250.023438 L 239.804688 270.394531 C 238.671875 270.648438 237.511719 270.898438 236.355469 271.125 " fill-opacity="1" fill-rule="nonzero"/><path fill="#ffffff" d="M 230.476562 272.242188 L 230.476562 251.839844 C 231.644531 251.636719 232.789062 251.425781 233.933594 251.210938 L 233.933594 271.617188 C 232.800781 271.832031 231.636719 272.042969 230.476562 272.242188 " fill-opacity="1" fill-rule="nonzero"/><path fill="#ffffff" d="M 224.59375 273.179688 L 224.59375 252.75 C 225.757812 252.585938 226.910156 252.40625 228.050781 252.226562 L 228.050781 272.644531 C 226.910156 272.828125 225.757812 273.007812 224.59375 273.179688 " fill-opacity="1" fill-rule="nonzero"/><path fill="#ffffff" d="M 145.625 273.179688 C 144.464844 273.007812 143.304688 272.828125 142.171875 272.644531 L 142.171875 252.226562 C 143.304688 252.40625 144.464844 252.585938 145.625 252.75 L 145.625 273.179688 " fill-opacity="1" fill-rule="nonzero"/><path fill="#ffffff" d="M 139.742188 272.242188 C 138.582031 272.042969 137.425781 271.832031 136.285156 271.617188 L 136.285156 251.210938 C 137.425781 251.425781 138.578125 251.636719 139.742188 251.839844 L 139.742188 272.242188 " fill-opacity="1" fill-rule="nonzero"/><path fill="#ffffff" d="M 133.867188 271.125 C 132.699219 270.898438 131.550781 270.648438 130.414062 270.394531 L 130.414062 250.023438 C 131.550781 250.273438 132.699219 250.507812 133.867188 250.742188 L 133.867188 271.125 " fill-opacity="1" fill-rule="nonzero"/><path fill="#ffffff" d="M 127.988281 269.851562 C 126.8125 269.574219 125.664062 269.285156 124.535156 268.992188 L 124.535156 248.640625 C 125.664062 248.925781 126.8125 249.210938 127.988281 249.480469 L 127.988281 269.851562 " fill-opacity="1" fill-rule="nonzero"/><path fill="#ffffff" d="M 122.113281 268.34375 C 120.941406 268.019531 119.789062 267.695312 118.65625 267.355469 L 118.65625 247.058594 C 119.785156 247.390625 120.945312 247.707031 122.113281 248.023438 L 122.113281 268.34375 " fill-opacity="1" fill-rule="nonzero"/><path fill="#ffffff" d="M 175.007812 275.777344 C 173.847656 275.738281 172.703125 275.683594 171.550781 275.628906 L 171.550781 255.167969 C 172.703125 255.21875 173.847656 255.269531 175.007812 255.3125 L 175.007812 275.777344 " fill-opacity="1" fill-rule="nonzero"/><path fill="#ffffff" d="M 169.132812 275.515625 C 167.96875 275.453125 166.824219 275.378906 165.675781 275.300781 L 165.675781 254.835938 C 166.824219 254.914062 167.96875 254.988281 169.132812 255.058594 L 169.132812 275.515625 " fill-opacity="1" fill-rule="nonzero"/><path fill="#ffffff" d="M 180.882812 275.917969 C 179.726562 275.90625 178.578125 275.871094 177.433594 275.84375 L 177.433594 255.375 C 178.578125 255.410156 179.726562 255.429688 180.882812 255.449219 L 180.882812 275.917969 " fill-opacity="1" fill-rule="nonzero"/><path fill="#ffffff" d="M 185.109375 275.953125 C 184.507812 275.953125 183.90625 275.941406 183.308594 275.941406 L 183.308594 255.464844 C 183.90625 255.472656 184.507812 255.488281 185.109375 255.488281 C 185.664062 255.488281 186.210938 255.476562 186.761719 255.472656 L 186.761719 275.941406 C 186.210938 275.941406 185.664062 275.953125 185.109375 275.953125 " fill-opacity="1" fill-rule="nonzero"/><path fill="#ffffff" d="M 189.1875 275.917969 L 189.1875 255.449219 C 190.339844 255.4375 191.488281 255.417969 192.640625 255.382812 L 192.640625 275.84375 C 191.488281 275.878906 190.339844 275.90625 189.1875 275.917969 " fill-opacity="1" fill-rule="nonzero"/><path fill="#ffffff" d="M 195.0625 275.777344 L 195.0625 255.3125 C 196.21875 255.273438 197.371094 255.226562 198.519531 255.175781 L 198.519531 275.636719 C 197.371094 275.6875 196.21875 275.746094 195.0625 275.777344 " fill-opacity="1" fill-rule="nonzero"/><path fill="#ffffff" d="M 200.941406 275.523438 L 200.941406 255.0625 C 202.101562 255.003906 203.246094 254.925781 204.394531 254.851562 L 204.394531 275.308594 C 203.246094 275.382812 202.101562 275.464844 200.941406 275.523438 " fill-opacity="1" fill-rule="nonzero"/><path fill="#ffffff" d="M 206.8125 275.136719 L 206.8125 254.683594 C 207.976562 254.597656 209.128906 254.5 210.269531 254.402344 L 210.269531 274.855469 C 209.136719 274.957031 207.976562 275.050781 206.8125 275.136719 " fill-opacity="1" fill-rule="nonzero"/><path fill="#ffffff" d="M 212.691406 274.625 L 212.691406 254.175781 C 213.851562 254.0625 215.011719 253.953125 216.148438 253.832031 L 216.148438 274.265625 C 215.011719 274.398438 213.851562 274.515625 212.691406 274.625 " fill-opacity="1" fill-rule="nonzero"/><path fill="#ffffff" d="M 218.570312 273.980469 L 218.570312 253.546875 C 219.730469 253.398438 220.882812 253.261719 222.023438 253.109375 L 222.023438 273.539062 C 220.882812 273.695312 219.730469 273.839844 218.570312 273.980469 " fill-opacity="1" fill-rule="nonzero"/><path fill="#ffffff" d="M 163.253906 275.125 C 162.097656 275.035156 160.945312 274.953125 159.796875 274.84375 L 159.796875 254.390625 C 160.945312 254.488281 162.097656 254.585938 163.253906 254.671875 L 163.253906 275.125 " fill-opacity="1" fill-rule="nonzero"/><path fill="#ffffff" d="M 157.375 274.609375 C 156.21875 274.5 155.0625 274.382812 153.921875 274.25 L 153.921875 253.8125 C 155.0625 253.941406 156.21875 254.050781 157.375 254.160156 L 157.375 274.609375 " fill-opacity="1" fill-rule="nonzero"/><path fill="#ffffff" d="M 151.496094 273.960938 C 150.339844 273.816406 149.1875 273.667969 148.042969 273.519531 L 148.042969 253.085938 C 149.179688 253.242188 150.339844 253.390625 151.496094 253.527344 L 151.496094 273.960938 " fill-opacity="1" fill-rule="nonzero"/><path fill="#ffffff" d="M 116.234375 266.621094 C 115.050781 266.25 113.902344 265.867188 112.777344 265.46875 L 112.777344 245.191406 C 113.902344 245.578125 115.058594 245.957031 116.234375 246.320312 L 116.234375 266.621094 " fill-opacity="1" fill-rule="nonzero"/><path fill="#ffffff" d="M 110.035156 264.460938 C 108.960938 264.066406 107.914062 263.648438 106.902344 263.226562 L 106.902344 243.035156 C 108.027344 243.484375 109.171875 243.917969 110.355469 244.347656 L 110.355469 264.125 C 110.355469 264.25 110.21875 264.363281 110.035156 264.460938 " fill-opacity="1" fill-rule="nonzero"/><path fill="#ffffff" d="M 103.59375 261.785156 C 102.703125 261.382812 101.859375 260.972656 101.027344 260.558594 L 101.027344 240.457031 C 102.136719 240.996094 103.28125 241.523438 104.484375 242.035156 L 104.484375 261.269531 C 104.484375 261.492188 104.105469 261.679688 103.59375 261.785156 " fill-opacity="1" fill-rule="nonzero"/><path fill="#ffffff" d="M 97.882812 258.890625 C 96.933594 258.355469 96.015625 257.808594 95.148438 257.25 L 95.148438 237.304688 C 96.246094 237.964844 97.378906 238.621094 98.601562 239.253906 L 98.601562 258.414062 C 98.601562 258.605469 98.304688 258.773438 97.882812 258.890625 " fill-opacity="1" fill-rule="nonzero"/><path fill="#ffffff" d="M 92.699219 255.597656 C 91.441406 254.691406 90.308594 253.753906 89.269531 252.808594 L 89.269531 233.207031 C 90.324219 234.078125 91.488281 234.925781 92.722656 235.769531 L 92.722656 255.554688 L 92.699219 255.597656 " fill-opacity="1" fill-rule="nonzero"/><path fill="#ffffff" d="M 86.84375 250.351562 C 85.296875 248.5625 84.140625 246.707031 83.394531 244.804688 L 83.394531 226.742188 C 84.300781 228.195312 85.460938 229.617188 86.84375 231.011719 L 86.84375 250.351562 " fill-opacity="1" fill-rule="nonzero"/><g clip-path="url(#b9702c0587)"><path fill="#028900" d="M 303.472656 202.851562 L 303.472656 180.996094 L 95.113281 180.996094 L 95.113281 202.851562 C 95.113281 223.109375 141.753906 239.523438 199.292969 239.523438 C 256.824219 239.523438 303.472656 223.109375 303.472656 202.851562 " fill-opacity="1" fill-rule="nonzero"/></g><g clip-path="url(#5785579e91)"><path fill="#028900" d="M 199.292969 216.046875 C 141.753906 216.046875 95.113281 199.625 95.113281 179.382812 C 95.113281 159.125 141.753906 142.714844 199.292969 142.714844 C 256.824219 142.714844 303.472656 159.125 303.472656 179.382812 C 303.472656 199.625 256.824219 216.046875 199.292969 216.046875 " fill-opacity="1" fill-rule="nonzero"/></g><path fill="#028900" d="M 205.5625 193.699219 C 209.734375 193.417969 213.140625 192.738281 215.765625 191.648438 C 218.378906 190.558594 219.6875 189.273438 219.6875 187.808594 C 219.6875 186.496094 218.59375 185.363281 216.382812 184.410156 C 214.183594 183.464844 210.585938 182.722656 205.5625 182.214844 L 205.5625 193.699219 M 193.4375 162.394531 C 190.15625 162.78125 187.53125 163.445312 185.582031 164.382812 C 183.632812 165.335938 182.65625 166.375 182.65625 167.507812 C 182.65625 168.550781 183.546875 169.511719 185.328125 170.40625 C 187.113281 171.296875 189.8125 172.023438 193.4375 172.566406 L 193.4375 162.394531 M 193.4375 193.28125 L 193.4375 180.949219 C 182.511719 179.851562 174.511719 178.195312 169.398438 175.96875 C 164.308594 173.742188 161.757812 171.042969 161.757812 167.867188 C 161.757812 164.640625 164.644531 161.941406 170.410156 159.753906 C 176.171875 157.566406 183.851562 156.308594 193.4375 155.976562 L 193.4375 153.058594 L 205.5625 153.058594 L 205.5625 155.976562 C 214.421875 156.347656 221.464844 157.417969 226.710938 159.171875 C 231.957031 160.921875 235.300781 163.269531 236.738281 166.21875 L 215.597656 167.183594 C 214.3125 164.863281 210.964844 163.304688 205.5625 162.480469 L 205.5625 173.984375 C 218.941406 175.25 228.054688 176.910156 232.902344 178.9375 C 237.746094 180.96875 240.171875 183.574219 240.171875 186.75 C 240.171875 190.304688 237.117188 193.285156 231.027344 195.71875 C 224.917969 198.160156 216.429688 199.644531 205.5625 200.203125 L 205.5625 205.699219 L 193.4375 205.699219 L 193.4375 200.347656 C 183.796875 199.933594 175.964844 198.667969 169.941406 196.546875 C 163.929688 194.429688 160.085938 191.441406 158.414062 187.570312 L 180.226562 186.75 C 181.125 188.316406 182.789062 189.671875 185.25 190.808594 C 187.695312 191.941406 190.429688 192.773438 193.4375 193.28125 " fill-opacity="1" fill-rule="nonzero"/><path fill="#ffffff" d="M 291.703125 217.542969 L 291.671875 217.496094 L 291.671875 197.707031 C 292.910156 196.871094 294.078125 196.023438 295.128906 195.15625 L 295.128906 214.75 C 294.085938 215.699219 292.957031 216.632812 291.703125 217.542969 " fill-opacity="1" fill-rule="nonzero"/><path fill="#ffffff" d="M 286.515625 220.835938 C 286.09375 220.71875 285.796875 220.550781 285.796875 220.351562 L 285.796875 201.195312 C 287.015625 200.566406 288.15625 199.90625 289.257812 199.25 L 289.257812 219.195312 C 288.386719 219.746094 287.464844 220.296875 286.515625 220.835938 " fill-opacity="1" fill-rule="nonzero"/><path fill="#ffffff" d="M 297.554688 212.296875 L 297.554688 192.949219 C 298.945312 191.5625 300.097656 190.136719 301.003906 188.679688 L 301.003906 206.75 C 300.261719 208.648438 299.109375 210.5 297.554688 212.296875 " fill-opacity="1" fill-rule="nonzero"/><path fill="#ffffff" d="M 280.808594 223.734375 C 280.292969 223.628906 279.917969 223.4375 279.917969 223.210938 L 279.917969 203.984375 C 281.113281 203.460938 282.261719 202.9375 283.378906 202.402344 L 283.378906 222.5 C 282.539062 222.917969 281.6875 223.328125 280.808594 223.734375 " fill-opacity="1" fill-rule="nonzero"/><path fill="#ffffff" d="M 274.367188 226.40625 C 274.175781 226.308594 274.046875 226.199219 274.046875 226.066406 L 274.046875 206.289062 C 275.226562 205.863281 276.375 205.425781 277.5 204.972656 L 277.5 225.167969 C 276.476562 225.589844 275.4375 226.003906 274.367188 226.40625 " fill-opacity="1" fill-rule="nonzero"/><path fill="#ffffff" d="M 268.171875 228.558594 L 268.171875 208.257812 C 269.34375 207.902344 270.5 207.519531 271.625 207.136719 L 271.625 227.410156 C 270.5 227.804688 269.34375 228.1875 268.171875 228.558594 " fill-opacity="1" fill-rule="nonzero"/><path fill="#ffffff" d="M 262.289062 230.285156 L 262.289062 209.964844 C 263.457031 209.648438 264.613281 209.332031 265.738281 209.003906 L 265.738281 229.304688 C 264.609375 229.644531 263.464844 229.964844 262.289062 230.285156 " fill-opacity="1" fill-rule="nonzero"/><path fill="#ffffff" d="M 256.40625 231.792969 L 256.40625 211.425781 C 257.582031 211.152344 258.726562 210.871094 259.867188 210.582031 L 259.867188 230.933594 C 258.726562 231.226562 257.582031 231.519531 256.40625 231.792969 " fill-opacity="1" fill-rule="nonzero"/><path fill="#ffffff" d="M 250.53125 233.070312 L 250.53125 212.6875 C 251.699219 212.449219 252.851562 212.214844 253.984375 211.972656 L 253.984375 232.339844 C 252.851562 232.597656 251.699219 232.835938 250.53125 233.070312 " fill-opacity="1" fill-rule="nonzero"/><path fill="#ffffff" d="M 244.660156 234.183594 L 244.660156 213.78125 C 245.820312 213.574219 246.96875 213.367188 248.113281 213.152344 L 248.113281 233.5625 C 246.976562 233.773438 245.816406 233.980469 244.660156 234.183594 " fill-opacity="1" fill-rule="nonzero"/><path fill="#ffffff" d="M 238.777344 235.125 L 238.777344 214.691406 C 239.941406 214.527344 241.089844 214.355469 242.234375 214.167969 L 242.234375 234.585938 C 241.089844 234.769531 239.941406 234.949219 238.777344 235.125 " fill-opacity="1" fill-rule="nonzero"/><path fill="#ffffff" d="M 159.804688 235.125 C 158.640625 234.949219 157.492188 234.769531 156.34375 234.585938 L 156.34375 214.167969 C 157.492188 214.355469 158.640625 214.527344 159.804688 214.691406 L 159.804688 235.125 " fill-opacity="1" fill-rule="nonzero"/><path fill="#ffffff" d="M 153.921875 234.183594 C 152.761719 233.980469 151.605469 233.773438 150.46875 233.5625 L 150.46875 213.152344 C 151.617188 213.367188 152.757812 213.574219 153.921875 213.78125 L 153.921875 234.183594 " fill-opacity="1" fill-rule="nonzero"/><path fill="#ffffff" d="M 148.046875 233.070312 C 146.878906 232.835938 145.734375 232.597656 144.59375 232.339844 L 144.59375 211.972656 C 145.734375 212.214844 146.878906 212.449219 148.046875 212.6875 L 148.046875 233.070312 " fill-opacity="1" fill-rule="nonzero"/><path fill="#ffffff" d="M 142.171875 231.792969 C 141 231.519531 139.847656 231.226562 138.714844 230.933594 L 138.714844 210.582031 C 139.847656 210.871094 141 211.152344 142.171875 211.425781 L 142.171875 231.792969 " fill-opacity="1" fill-rule="nonzero"/><path fill="#ffffff" d="M 136.292969 230.285156 C 135.121094 229.964844 133.96875 229.644531 132.839844 229.304688 L 132.839844 209.003906 C 133.964844 209.332031 135.125 209.648438 136.292969 209.964844 L 136.292969 230.285156 " fill-opacity="1" fill-rule="nonzero"/><path fill="#ffffff" d="M 189.1875 237.722656 C 188.027344 237.679688 186.886719 237.628906 185.734375 237.578125 L 185.734375 217.117188 C 186.886719 217.164062 188.027344 217.214844 189.1875 217.257812 L 189.1875 237.722656 " fill-opacity="1" fill-rule="nonzero"/><path fill="#ffffff" d="M 183.308594 237.457031 C 182.152344 237.398438 181 237.320312 179.859375 237.242188 L 179.859375 216.789062 C 181 216.855469 182.152344 216.941406 183.308594 217.007812 L 183.308594 237.457031 " fill-opacity="1" fill-rule="nonzero"/><path fill="#ffffff" d="M 195.066406 237.863281 C 193.90625 237.847656 192.757812 237.816406 191.613281 237.785156 L 191.613281 217.324219 C 192.757812 217.347656 193.90625 217.371094 195.066406 217.390625 L 195.066406 237.863281 " fill-opacity="1" fill-rule="nonzero"/><path fill="#ffffff" d="M 199.292969 237.902344 C 198.6875 237.902344 198.09375 237.886719 197.488281 237.878906 L 197.488281 217.410156 C 198.09375 217.417969 198.6875 217.429688 199.292969 217.429688 C 199.847656 217.429688 200.394531 217.421875 200.941406 217.417969 L 200.941406 237.878906 C 200.394531 237.886719 199.847656 237.902344 199.292969 237.902344 " fill-opacity="1" fill-rule="nonzero"/><path fill="#ffffff" d="M 203.371094 237.863281 L 203.371094 217.390625 C 204.523438 217.378906 205.667969 217.355469 206.824219 217.332031 L 206.824219 237.792969 C 205.667969 237.820312 204.523438 237.847656 203.371094 237.863281 " fill-opacity="1" fill-rule="nonzero"/><path fill="#ffffff" d="M 209.242188 237.722656 L 209.242188 217.261719 C 210.40625 217.222656 211.550781 217.171875 212.695312 217.117188 L 212.695312 237.582031 C 211.550781 237.628906 210.40625 237.6875 209.242188 237.722656 " fill-opacity="1" fill-rule="nonzero"/><path fill="#ffffff" d="M 215.125 237.464844 L 215.125 217.007812 C 216.28125 216.949219 217.425781 216.867188 218.574219 216.789062 L 218.574219 237.25 C 217.425781 237.328125 216.28125 237.410156 215.125 237.464844 " fill-opacity="1" fill-rule="nonzero"/><path fill="#ffffff" d="M 221 237.078125 L 221 216.625 C 222.15625 216.539062 223.304688 216.445312 224.453125 216.347656 L 224.453125 236.800781 C 223.3125 236.898438 222.15625 236.988281 221 237.078125 " fill-opacity="1" fill-rule="nonzero"/><path fill="#ffffff" d="M 226.875 236.570312 L 226.875 216.121094 C 228.03125 216.011719 229.195312 215.898438 230.332031 215.773438 L 230.332031 236.210938 C 229.195312 236.335938 228.03125 236.453125 226.875 236.570312 " fill-opacity="1" fill-rule="nonzero"/><path fill="#ffffff" d="M 232.753906 235.925781 L 232.753906 215.488281 C 233.914062 215.34375 235.066406 215.203125 236.203125 215.050781 L 236.203125 235.484375 C 235.066406 235.636719 233.914062 235.777344 232.753906 235.925781 " fill-opacity="1" fill-rule="nonzero"/><path fill="#ffffff" d="M 177.433594 237.070312 C 176.277344 236.976562 175.125 236.890625 173.976562 236.789062 L 173.976562 216.335938 C 175.125 216.433594 176.277344 216.523438 177.433594 216.613281 L 177.433594 237.070312 " fill-opacity="1" fill-rule="nonzero"/><path fill="#ffffff" d="M 171.5625 236.550781 C 170.398438 236.4375 169.242188 236.324219 168.105469 236.199219 L 168.105469 215.753906 C 169.242188 215.882812 170.398438 215.992188 171.5625 216.105469 L 171.5625 236.550781 " fill-opacity="1" fill-rule="nonzero"/><path fill="#ffffff" d="M 165.675781 235.902344 C 164.515625 235.769531 163.367188 235.613281 162.222656 235.457031 L 162.222656 215.035156 C 163.367188 215.1875 164.515625 215.328125 165.675781 215.472656 L 165.675781 235.902344 " fill-opacity="1" fill-rule="nonzero"/><path fill="#ffffff" d="M 130.414062 228.558594 C 129.238281 228.1875 128.082031 227.804688 126.960938 227.410156 L 126.960938 207.136719 C 128.082031 207.519531 129.238281 207.902344 130.414062 208.257812 L 130.414062 228.558594 " fill-opacity="1" fill-rule="nonzero"/><path fill="#ffffff" d="M 124.214844 226.40625 C 123.144531 226.003906 122.105469 225.589844 121.085938 225.167969 L 121.085938 204.972656 C 122.207031 205.425781 123.359375 205.863281 124.535156 206.289062 L 124.535156 226.066406 C 124.535156 226.199219 124.402344 226.308594 124.214844 226.40625 " fill-opacity="1" fill-rule="nonzero"/><path fill="#ffffff" d="M 117.777344 223.734375 C 116.890625 223.328125 116.039062 222.917969 115.207031 222.5 L 115.207031 202.402344 C 116.316406 202.9375 117.46875 203.460938 118.65625 203.984375 L 118.65625 223.210938 C 118.65625 223.4375 118.289062 223.628906 117.777344 223.734375 " fill-opacity="1" fill-rule="nonzero"/><path fill="#ffffff" d="M 112.0625 220.835938 C 111.113281 220.296875 110.195312 219.746094 109.328125 219.195312 L 109.328125 199.25 C 110.425781 199.90625 111.570312 200.566406 112.785156 201.195312 L 112.785156 220.351562 C 112.785156 220.550781 112.488281 220.71875 112.0625 220.835938 " fill-opacity="1" fill-rule="nonzero"/><path fill="#ffffff" d="M 106.878906 217.542969 C 105.621094 216.632812 104.488281 215.699219 103.445312 214.75 L 103.445312 195.15625 C 104.5 196.023438 105.671875 196.871094 106.910156 197.707031 L 106.910156 217.496094 L 106.878906 217.542969 " fill-opacity="1" fill-rule="nonzero"/><path fill="#ffffff" d="M 101.03125 212.296875 C 99.472656 210.5 98.320312 208.648438 97.570312 206.75 L 97.570312 192.488281 C 98.6875 192.984375 99.839844 193.46875 101.03125 193.9375 L 101.03125 212.296875 " fill-opacity="1" fill-rule="nonzero"/><g clip-path="url(#cf42f6958c)"><path fill="#028900" d="M 283.34375 169.683594 L 283.34375 147.820312 L 74.980469 147.820312 L 74.980469 169.683594 C 74.980469 189.9375 121.621094 206.347656 179.160156 206.347656 C 236.699219 206.347656 283.34375 189.9375 283.34375 169.683594 " fill-opacity="1" fill-rule="nonzero"/></g><g clip-path="url(#4a179637cc)"><path fill="#028900" d="M 179.160156 182.871094 C 121.621094 182.871094 74.980469 166.460938 74.980469 146.210938 C 74.980469 125.953125 121.621094 109.542969 179.160156 109.542969 C 236.699219 109.542969 283.34375 125.953125 283.34375 146.210938 C 283.34375 166.460938 236.699219 182.871094 179.160156 182.871094 " fill-opacity="1" fill-rule="nonzero"/></g><path fill="#028900" d="M 185.433594 160.527344 C 189.605469 160.246094 193.007812 159.5625 195.632812 158.476562 C 198.242188 157.386719 199.558594 156.105469 199.558594 154.636719 C 199.558594 153.324219 198.457031 152.191406 196.253906 151.238281 C 194.050781 150.289062 190.457031 149.550781 185.433594 149.046875 L 185.433594 160.527344 M 173.308594 129.21875 C 170.019531 129.609375 167.402344 130.273438 165.453125 131.210938 C 163.5 132.160156 162.527344 133.195312 162.527344 134.335938 C 162.527344 135.378906 163.417969 136.339844 165.199219 137.234375 C 166.980469 138.121094 169.679688 138.847656 173.308594 139.394531 L 173.308594 129.21875 M 173.308594 160.105469 L 173.308594 147.78125 C 162.382812 146.683594 154.378906 145.023438 149.273438 142.796875 C 144.179688 140.574219 141.625 137.863281 141.625 134.695312 C 141.625 131.46875 144.507812 128.769531 150.277344 126.582031 C 156.039062 124.390625 163.722656 123.136719 173.308594 122.800781 L 173.308594 119.890625 L 185.433594 119.890625 L 185.433594 122.800781 C 194.285156 123.171875 201.332031 124.242188 206.578125 125.996094 C 211.828125 127.753906 215.167969 130.09375 216.605469 133.046875 L 195.460938 134.007812 C 194.175781 131.703125 190.828125 130.128906 185.433594 129.304688 L 185.433594 140.808594 C 198.808594 142.078125 207.929688 143.738281 212.769531 145.765625 C 217.617188 147.796875 220.042969 150.40625 220.042969 153.574219 C 220.042969 157.128906 216.984375 160.121094 210.894531 162.554688 C 204.78125 164.984375 196.296875 166.472656 185.433594 167.027344 L 185.433594 172.527344 L 173.308594 172.527344 L 173.308594 167.171875 C 163.667969 166.757812 155.828125 165.496094 149.8125 163.378906 C 143.796875 161.253906 139.957031 158.265625 138.28125 154.402344 L 160.097656 153.574219 C 160.996094 155.144531 162.660156 156.496094 165.113281 157.640625 C 167.566406 158.769531 170.296875 159.601562 173.308594 160.105469 " fill-opacity="1" fill-rule="nonzero"/><path fill="#ffffff" d="M 271.570312 184.367188 L 271.542969 184.324219 L 271.542969 164.535156 C 272.78125 163.699219 273.945312 162.851562 274.996094 161.984375 L 274.996094 181.574219 C 273.957031 182.53125 272.828125 183.464844 271.570312 184.367188 " fill-opacity="1" fill-rule="nonzero"/><path fill="#ffffff" d="M 266.386719 187.660156 C 265.960938 187.546875 265.667969 187.378906 265.667969 187.183594 L 265.667969 168.023438 C 266.882812 167.390625 268.023438 166.734375 269.117188 166.070312 L 269.117188 186.027344 C 268.253906 186.582031 267.328125 187.125 266.386719 187.660156 " fill-opacity="1" fill-rule="nonzero"/><path fill="#ffffff" d="M 277.425781 179.128906 L 277.425781 159.777344 C 278.105469 159.097656 278.734375 158.40625 279.304688 157.703125 C 279.851562 157.296875 280.375 156.882812 280.878906 156.46875 L 280.878906 173.578125 C 280.128906 175.476562 278.976562 177.335938 277.425781 179.128906 " fill-opacity="1" fill-rule="nonzero"/><path fill="#ffffff" d="M 260.671875 190.558594 C 260.15625 190.449219 259.789062 190.265625 259.789062 190.039062 L 259.789062 170.8125 C 260.980469 170.292969 262.128906 169.769531 263.246094 169.234375 L 263.246094 189.324219 C 262.410156 189.746094 261.558594 190.15625 260.671875 190.558594 " fill-opacity="1" fill-rule="nonzero"/><path fill="#ffffff" d="M 254.238281 193.238281 C 254.046875 193.136719 253.910156 193.023438 253.910156 192.898438 L 253.910156 173.117188 C 255.097656 172.691406 256.242188 172.25 257.367188 171.808594 L 257.367188 192 C 256.351562 192.421875 255.304688 192.832031 254.238281 193.238281 " fill-opacity="1" fill-rule="nonzero"/><path fill="#ffffff" d="M 248.035156 195.390625 L 248.035156 175.089844 C 249.210938 174.726562 250.363281 174.359375 251.492188 173.96875 L 251.492188 194.242188 C 250.363281 194.632812 249.214844 195.015625 248.035156 195.390625 " fill-opacity="1" fill-rule="nonzero"/><path fill="#ffffff" d="M 242.15625 197.113281 L 242.15625 176.789062 C 243.328125 176.472656 244.484375 176.160156 245.613281 175.832031 L 245.613281 196.132812 C 244.480469 196.46875 243.332031 196.792969 242.15625 197.113281 " fill-opacity="1" fill-rule="nonzero"/><path fill="#ffffff" d="M 236.277344 198.621094 L 236.277344 178.253906 C 237.449219 177.984375 238.597656 177.699219 239.742188 177.414062 L 239.742188 197.761719 C 238.597656 198.054688 237.449219 198.34375 236.277344 198.621094 " fill-opacity="1" fill-rule="nonzero"/><path fill="#ffffff" d="M 230.40625 199.902344 L 230.40625 179.515625 C 231.566406 179.28125 232.714844 179.042969 233.859375 178.796875 L 233.859375 199.167969 C 232.714844 199.417969 231.566406 199.664062 230.40625 199.902344 " fill-opacity="1" fill-rule="nonzero"/><path fill="#ffffff" d="M 224.53125 201.011719 L 224.53125 180.609375 C 225.691406 180.402344 226.835938 180.203125 227.980469 179.984375 L 227.980469 200.386719 C 226.839844 200.601562 225.683594 200.8125 224.53125 201.011719 " fill-opacity="1" fill-rule="nonzero"/><path fill="#ffffff" d="M 218.648438 201.957031 L 218.648438 181.523438 C 219.808594 181.359375 220.964844 181.179688 222.097656 180.996094 L 222.097656 201.410156 C 220.964844 201.597656 219.808594 201.78125 218.648438 201.957031 " fill-opacity="1" fill-rule="nonzero"/><path fill="#ffffff" d="M 139.671875 201.957031 C 138.503906 201.78125 137.355469 201.597656 136.21875 201.410156 L 136.21875 180.996094 C 137.355469 181.179688 138.503906 181.359375 139.671875 181.523438 L 139.671875 201.957031 " fill-opacity="1" fill-rule="nonzero"/><path fill="#ffffff" d="M 133.792969 201.011719 C 132.632812 200.8125 131.472656 200.601562 130.339844 200.386719 L 130.339844 179.984375 C 131.476562 180.203125 132.628906 180.402344 133.792969 180.609375 L 133.792969 201.011719 " fill-opacity="1" fill-rule="nonzero"/><path fill="#ffffff" d="M 127.914062 199.902344 C 126.753906 199.664062 125.597656 199.417969 124.460938 199.167969 L 124.460938 178.796875 C 125.597656 179.042969 126.753906 179.28125 127.914062 179.515625 L 127.914062 199.902344 " fill-opacity="1" fill-rule="nonzero"/><path fill="#ffffff" d="M 122.039062 198.621094 C 120.863281 198.34375 119.71875 198.054688 118.582031 197.761719 L 118.582031 177.414062 C 119.71875 177.699219 120.863281 177.984375 122.039062 178.253906 L 122.039062 198.621094 " fill-opacity="1" fill-rule="nonzero"/><path fill="#ffffff" d="M 116.160156 197.113281 C 114.992188 196.792969 113.839844 196.46875 112.707031 196.132812 L 112.707031 175.832031 C 113.832031 176.160156 114.992188 176.472656 116.160156 176.789062 L 116.160156 197.113281 " fill-opacity="1" fill-rule="nonzero"/><path fill="#ffffff" d="M 169.050781 204.550781 C 167.902344 204.507812 166.753906 204.457031 165.601562 204.40625 L 165.601562 183.941406 C 166.753906 183.988281 167.902344 184.039062 169.050781 184.082031 L 169.050781 204.550781 " fill-opacity="1" fill-rule="nonzero"/><path fill="#ffffff" d="M 163.179688 204.28125 C 162.019531 204.226562 160.871094 204.148438 159.722656 204.070312 L 159.722656 183.613281 C 160.871094 183.683594 162.019531 183.769531 163.179688 183.832031 L 163.179688 204.28125 " fill-opacity="1" fill-rule="nonzero"/><path fill="#ffffff" d="M 174.933594 204.695312 C 173.777344 204.667969 172.625 204.640625 171.484375 204.617188 L 171.484375 184.148438 C 172.625 184.175781 173.777344 184.195312 174.933594 184.21875 L 174.933594 204.695312 " fill-opacity="1" fill-rule="nonzero"/><path fill="#ffffff" d="M 179.160156 204.730469 C 178.554688 204.730469 177.960938 204.714844 177.359375 204.707031 L 177.359375 184.238281 C 177.960938 184.238281 178.554688 184.253906 179.160156 184.253906 C 179.714844 184.253906 180.261719 184.25 180.8125 184.238281 L 180.8125 204.707031 C 180.261719 204.714844 179.714844 204.730469 179.160156 204.730469 " fill-opacity="1" fill-rule="nonzero"/><path fill="#ffffff" d="M 183.238281 204.695312 L 183.238281 184.21875 C 184.390625 184.203125 185.539062 184.183594 186.691406 184.15625 L 186.691406 204.621094 C 185.539062 204.644531 184.390625 204.667969 183.238281 204.695312 " fill-opacity="1" fill-rule="nonzero"/><path fill="#ffffff" d="M 189.113281 204.550781 L 189.113281 184.09375 C 190.273438 184.046875 191.425781 183.992188 192.566406 183.945312 L 192.566406 204.410156 C 191.425781 204.460938 190.273438 204.519531 189.113281 204.550781 " fill-opacity="1" fill-rule="nonzero"/><path fill="#ffffff" d="M 194.988281 204.300781 L 194.988281 183.835938 C 196.148438 183.777344 197.292969 183.695312 198.445312 183.621094 L 198.445312 204.082031 C 197.292969 204.15625 196.148438 204.234375 194.988281 204.300781 " fill-opacity="1" fill-rule="nonzero"/><path fill="#ffffff" d="M 200.863281 203.902344 L 200.863281 183.453125 C 202.027344 183.367188 203.175781 183.273438 204.320312 183.175781 L 204.320312 203.628906 C 203.183594 203.722656 202.027344 203.820312 200.863281 203.902344 " fill-opacity="1" fill-rule="nonzero"/><path fill="#ffffff" d="M 206.738281 203.394531 L 206.738281 182.949219 C 207.902344 182.835938 209.054688 182.730469 210.203125 182.597656 L 210.203125 203.039062 C 209.054688 203.167969 207.902344 203.28125 206.738281 203.394531 " fill-opacity="1" fill-rule="nonzero"/><path fill="#ffffff" d="M 212.621094 202.75 L 212.621094 182.316406 C 213.78125 182.175781 214.933594 182.035156 216.074219 181.878906 L 216.074219 202.308594 C 214.933594 202.460938 213.78125 202.609375 212.621094 202.75 " fill-opacity="1" fill-rule="nonzero"/><path fill="#ffffff" d="M 157.296875 203.898438 C 156.144531 203.808594 154.992188 203.71875 153.84375 203.617188 L 153.84375 183.164062 C 154.992188 183.261719 156.144531 183.355469 157.296875 183.441406 L 157.296875 203.898438 " fill-opacity="1" fill-rule="nonzero"/><path fill="#ffffff" d="M 151.425781 203.382812 C 150.265625 203.269531 149.113281 203.152344 147.972656 203.023438 L 147.972656 182.582031 C 149.113281 182.707031 150.265625 182.820312 151.425781 182.933594 L 151.425781 203.382812 " fill-opacity="1" fill-rule="nonzero"/><path fill="#ffffff" d="M 145.546875 202.730469 C 144.386719 202.59375 143.238281 202.445312 142.089844 202.289062 L 142.089844 181.859375 C 143.234375 182.011719 144.386719 182.15625 145.546875 182.300781 L 145.546875 202.730469 " fill-opacity="1" fill-rule="nonzero"/><path fill="#ffffff" d="M 110.285156 195.390625 C 109.101562 195.015625 107.957031 194.632812 106.828125 194.242188 L 106.828125 173.96875 C 107.957031 174.359375 109.109375 174.726562 110.285156 175.089844 L 110.285156 195.390625 " fill-opacity="1" fill-rule="nonzero"/><path fill="#ffffff" d="M 104.085938 193.238281 C 103.011719 192.832031 101.96875 192.421875 100.953125 192 L 100.953125 171.808594 C 102.074219 172.25 103.226562 172.691406 104.40625 173.117188 L 104.40625 192.898438 C 104.40625 193.023438 104.269531 193.136719 104.085938 193.238281 " fill-opacity="1" fill-rule="nonzero"/><path fill="#ffffff" d="M 97.644531 190.558594 C 96.761719 190.15625 95.902344 189.746094 95.074219 189.324219 L 95.074219 169.234375 C 96.191406 169.769531 97.332031 170.292969 98.53125 170.8125 L 98.53125 190.039062 C 98.53125 190.265625 98.160156 190.449219 97.644531 190.558594 " fill-opacity="1" fill-rule="nonzero"/><path fill="#ffffff" d="M 91.9375 187.660156 C 90.984375 187.125 90.058594 186.582031 89.199219 186.027344 L 89.199219 166.070312 C 90.296875 166.734375 91.433594 167.390625 92.652344 168.023438 L 92.652344 187.183594 C 92.652344 187.378906 92.351562 187.546875 91.9375 187.660156 " fill-opacity="1" fill-rule="nonzero"/><path fill="#ffffff" d="M 86.75 184.367188 C 85.492188 183.464844 84.355469 182.53125 83.316406 181.574219 L 83.316406 161.984375 C 84.375 162.851562 85.539062 163.699219 86.777344 164.535156 L 86.777344 184.324219 L 86.75 184.367188 " fill-opacity="1" fill-rule="nonzero"/><path fill="#ffffff" d="M 80.898438 179.128906 C 79.339844 177.335938 78.191406 175.476562 77.445312 173.578125 L 77.445312 155.511719 C 78.351562 156.96875 79.507812 158.394531 80.898438 159.777344 L 80.898438 179.128906 " fill-opacity="1" fill-rule="nonzero"/><path fill="#028900" d="M 289.144531 142.128906 L 289.144531 120.265625 L 80.785156 120.265625 L 80.785156 142.128906 C 80.785156 162.378906 127.425781 178.796875 184.964844 178.796875 C 242.5 178.796875 289.144531 162.378906 289.144531 142.128906 " fill-opacity="1" fill-rule="nonzero"/><path fill="#028900" d="M 184.964844 155.316406 C 127.425781 155.316406 80.785156 138.90625 80.785156 118.65625 C 80.785156 98.402344 127.425781 81.984375 184.964844 81.984375 C 242.5 81.984375 289.144531 98.402344 289.144531 118.65625 C 289.144531 138.90625 242.5 155.316406 184.964844 155.316406 " fill-opacity="1" fill-rule="nonzero"/><path fill="#028900" d="M 191.242188 132.964844 C 195.414062 132.6875 198.8125 132.015625 201.433594 130.925781 C 204.046875 129.839844 205.363281 128.554688 205.363281 127.085938 C 205.363281 125.765625 204.265625 124.636719 202.058594 123.6875 C 199.851562 122.734375 196.261719 122 191.242188 121.488281 L 191.242188 132.964844 M 179.113281 101.660156 C 175.828125 102.058594 173.203125 102.71875 171.257812 103.65625 C 169.308594 104.609375 168.328125 105.644531 168.328125 106.785156 C 168.328125 107.824219 169.21875 108.785156 171.003906 109.679688 C 172.785156 110.570312 175.484375 111.292969 179.113281 111.839844 L 179.113281 101.660156 M 179.113281 132.5625 L 179.113281 120.230469 C 168.1875 119.125 160.183594 117.46875 155.078125 115.238281 C 149.984375 113.015625 147.429688 110.3125 147.429688 107.132812 C 147.429688 103.914062 150.316406 101.214844 156.082031 99.03125 C 161.84375 96.84375 169.523438 95.582031 179.113281 95.25 L 179.113281 92.335938 L 191.242188 92.335938 L 191.242188 95.25 C 200.09375 95.617188 207.136719 96.683594 212.386719 98.4375 C 217.628906 100.195312 220.972656 102.539062 222.410156 105.488281 L 201.269531 106.464844 C 199.984375 104.140625 196.636719 102.578125 191.242188 101.753906 L 191.242188 113.253906 C 204.613281 114.527344 213.730469 116.183594 218.570312 118.210938 C 223.417969 120.246094 225.84375 122.84375 225.84375 126.019531 C 225.84375 129.574219 222.789062 132.566406 216.703125 134.996094 C 210.585938 137.429688 202.101562 138.921875 191.242188 139.472656 L 191.242188 144.972656 L 179.113281 144.972656 L 179.113281 139.617188 C 169.464844 139.203125 161.640625 137.941406 155.617188 135.820312 C 149.601562 133.699219 145.761719 130.710938 144.089844 126.847656 L 165.902344 126.019531 C 166.796875 127.589844 168.460938 128.941406 170.917969 130.085938 C 173.367188 131.21875 176.101562 132.042969 179.113281 132.5625 " fill-opacity="1" fill-rule="nonzero"/><path fill="#ffffff" d="M 277.375 156.816406 L 277.34375 156.769531 L 277.34375 136.976562 C 278.585938 136.144531 279.75 135.292969 280.808594 134.429688 L 280.808594 154.027344 C 279.761719 154.972656 278.632812 155.902344 277.375 156.816406 " fill-opacity="1" fill-rule="nonzero"/><path fill="#ffffff" d="M 272.1875 160.101562 C 271.769531 159.992188 271.476562 159.824219 271.476562 159.628906 L 271.476562 140.472656 C 272.6875 139.835938 273.832031 139.179688 274.929688 138.515625 L 274.929688 158.46875 C 274.058594 159.027344 273.140625 159.570312 272.1875 160.101562 " fill-opacity="1" fill-rule="nonzero"/><path fill="#ffffff" d="M 283.226562 151.570312 L 283.226562 132.226562 C 284.617188 130.835938 285.765625 129.40625 286.683594 127.957031 L 286.683594 146.023438 C 285.933594 147.917969 284.78125 149.773438 283.226562 151.570312 " fill-opacity="1" fill-rule="nonzero"/><path fill="#ffffff" d="M 266.480469 163.007812 C 265.960938 162.890625 265.589844 162.710938 265.589844 162.488281 L 265.589844 143.253906 C 266.785156 142.738281 267.933594 142.210938 269.050781 141.671875 L 269.050781 161.769531 C 268.214844 162.191406 267.363281 162.601562 266.480469 163.007812 " fill-opacity="1" fill-rule="nonzero"/><path fill="#ffffff" d="M 260.042969 165.683594 C 259.855469 165.582031 259.71875 165.464844 259.71875 165.34375 L 259.71875 145.5625 C 260.898438 145.136719 262.046875 144.695312 263.167969 144.25 L 263.167969 164.441406 C 262.152344 164.863281 261.109375 165.277344 260.042969 165.683594 " fill-opacity="1" fill-rule="nonzero"/><path fill="#ffffff" d="M 253.847656 167.828125 L 253.847656 147.53125 C 255.015625 147.171875 256.167969 146.800781 257.296875 146.410156 L 257.296875 166.683594 C 256.167969 167.078125 255.023438 167.464844 253.847656 167.828125 " fill-opacity="1" fill-rule="nonzero"/><path fill="#ffffff" d="M 247.957031 169.5625 L 247.957031 149.234375 C 249.128906 148.921875 250.289062 148.609375 251.414062 148.277344 L 251.414062 168.578125 C 250.285156 168.910156 249.132812 169.238281 247.957031 169.5625 " fill-opacity="1" fill-rule="nonzero"/><path fill="#ffffff" d="M 242.082031 171.066406 L 242.082031 150.695312 C 243.253906 150.425781 244.402344 150.140625 245.542969 149.859375 L 245.542969 170.207031 C 244.402344 170.496094 243.253906 170.785156 242.082031 171.066406 " fill-opacity="1" fill-rule="nonzero"/><path fill="#ffffff" d="M 236.203125 172.34375 L 236.203125 151.957031 C 237.371094 151.726562 238.527344 151.492188 239.660156 151.238281 L 239.660156 171.609375 C 238.527344 171.867188 237.371094 172.105469 236.203125 172.34375 " fill-opacity="1" fill-rule="nonzero"/><path fill="#ffffff" d="M 230.332031 173.453125 L 230.332031 153.050781 C 231.5 152.851562 232.636719 152.644531 233.785156 152.429688 L 233.785156 172.832031 C 232.652344 173.046875 231.496094 173.253906 230.332031 173.453125 " fill-opacity="1" fill-rule="nonzero"/><path fill="#ffffff" d="M 224.453125 174.398438 L 224.453125 153.972656 C 225.617188 153.804688 226.765625 153.628906 227.910156 153.441406 L 227.910156 173.863281 C 226.765625 174.042969 225.617188 174.226562 224.453125 174.398438 " fill-opacity="1" fill-rule="nonzero"/><path fill="#ffffff" d="M 145.472656 174.398438 C 144.316406 174.226562 143.164062 174.042969 142.019531 173.863281 L 142.019531 153.441406 C 143.164062 153.628906 144.316406 153.804688 145.472656 153.972656 L 145.472656 174.398438 " fill-opacity="1" fill-rule="nonzero"/><path fill="#ffffff" d="M 139.597656 173.453125 C 138.4375 173.253906 137.277344 173.046875 136.140625 172.832031 L 136.140625 152.429688 C 137.285156 152.644531 138.433594 152.851562 139.597656 153.050781 L 139.597656 173.453125 " fill-opacity="1" fill-rule="nonzero"/><path fill="#ffffff" d="M 133.722656 172.34375 C 132.554688 172.105469 131.40625 171.867188 130.269531 171.609375 L 130.269531 151.238281 C 131.40625 151.492188 132.554688 151.726562 133.722656 151.957031 L 133.722656 172.34375 " fill-opacity="1" fill-rule="nonzero"/><path fill="#ffffff" d="M 127.847656 171.066406 C 126.667969 170.785156 125.523438 170.496094 124.390625 170.207031 L 124.390625 149.859375 C 125.523438 150.140625 126.667969 150.425781 127.847656 150.695312 L 127.847656 171.066406 " fill-opacity="1" fill-rule="nonzero"/><path fill="#ffffff" d="M 121.96875 169.5625 C 120.789062 169.238281 119.640625 168.910156 118.515625 168.578125 L 118.515625 148.277344 C 119.640625 148.609375 120.796875 148.921875 121.96875 149.234375 L 121.96875 169.5625 " fill-opacity="1" fill-rule="nonzero"/><path fill="#ffffff" d="M 174.859375 176.992188 C 173.703125 176.953125 172.554688 176.898438 171.40625 176.847656 L 171.40625 156.382812 C 172.554688 156.433594 173.703125 156.488281 174.859375 156.527344 L 174.859375 176.992188 " fill-opacity="1" fill-rule="nonzero"/><path fill="#ffffff" d="M 168.988281 176.734375 C 167.828125 176.667969 166.675781 176.597656 165.53125 176.515625 L 165.53125 156.054688 C 166.675781 156.125 167.828125 156.214844 168.988281 156.273438 L 168.988281 176.734375 " fill-opacity="1" fill-rule="nonzero"/><path fill="#ffffff" d="M 180.742188 177.136719 C 179.582031 177.113281 178.429688 177.082031 177.289062 177.0625 L 177.289062 156.597656 C 178.429688 156.621094 179.582031 156.652344 180.742188 156.660156 L 180.742188 177.136719 " fill-opacity="1" fill-rule="nonzero"/><path fill="#ffffff" d="M 184.964844 177.171875 C 184.363281 177.171875 183.769531 177.15625 183.160156 177.15625 L 183.160156 156.683594 C 183.769531 156.691406 184.363281 156.707031 184.964844 156.707031 C 185.519531 156.707031 186.070312 156.695312 186.617188 156.691406 L 186.617188 177.15625 C 186.070312 177.15625 185.519531 177.171875 184.964844 177.171875 " fill-opacity="1" fill-rule="nonzero"/><path fill="#ffffff" d="M 189.039062 177.136719 L 189.039062 156.660156 C 190.199219 156.65625 191.347656 156.628906 192.496094 156.597656 L 192.496094 177.0625 C 191.347656 177.089844 190.199219 177.113281 189.039062 177.136719 " fill-opacity="1" fill-rule="nonzero"/><path fill="#ffffff" d="M 194.917969 177 L 194.917969 156.535156 C 196.074219 156.488281 197.226562 156.441406 198.371094 156.390625 L 198.371094 176.851562 C 197.226562 176.90625 196.074219 176.960938 194.917969 177 " fill-opacity="1" fill-rule="nonzero"/><path fill="#ffffff" d="M 200.792969 176.738281 L 200.792969 156.28125 C 201.957031 156.214844 203.105469 156.140625 204.25 156.066406 L 204.25 176.523438 C 203.105469 176.597656 201.957031 176.679688 200.792969 176.738281 " fill-opacity="1" fill-rule="nonzero"/><path fill="#ffffff" d="M 206.675781 176.351562 L 206.675781 155.902344 C 207.832031 155.8125 208.984375 155.71875 210.125 155.621094 L 210.125 176.074219 C 208.988281 176.179688 207.832031 176.265625 206.675781 176.351562 " fill-opacity="1" fill-rule="nonzero"/><path fill="#ffffff" d="M 212.546875 175.839844 L 212.546875 155.394531 C 213.703125 155.28125 214.863281 155.175781 216.007812 155.042969 L 216.007812 175.476562 C 214.863281 175.613281 213.703125 175.726562 212.546875 175.839844 " fill-opacity="1" fill-rule="nonzero"/><path fill="#ffffff" d="M 218.429688 175.199219 L 218.429688 154.761719 C 219.585938 154.621094 220.742188 154.472656 221.878906 154.320312 L 221.878906 174.761719 C 220.742188 174.914062 219.585938 175.054688 218.429688 175.199219 " fill-opacity="1" fill-rule="nonzero"/><path fill="#ffffff" d="M 163.105469 176.339844 C 161.953125 176.253906 160.792969 176.164062 159.652344 176.0625 L 159.652344 155.609375 C 160.792969 155.710938 161.953125 155.800781 163.105469 155.886719 L 163.105469 176.339844 " fill-opacity="1" fill-rule="nonzero"/><path fill="#ffffff" d="M 157.226562 175.824219 C 156.070312 175.710938 154.914062 175.59375 153.78125 175.472656 L 153.78125 155.027344 C 154.914062 155.15625 156.070312 155.265625 157.226562 155.378906 L 157.226562 175.824219 " fill-opacity="1" fill-rule="nonzero"/><path fill="#ffffff" d="M 151.351562 175.179688 C 150.191406 175.039062 149.042969 174.882812 147.894531 174.734375 L 147.894531 154.304688 C 149.035156 154.460938 150.191406 154.601562 151.351562 154.742188 L 151.351562 175.179688 " fill-opacity="1" fill-rule="nonzero"/><path fill="#ffffff" d="M 116.085938 167.828125 C 114.90625 167.464844 113.753906 167.078125 112.632812 166.683594 L 112.632812 146.410156 C 113.753906 146.800781 114.910156 147.171875 116.085938 147.53125 L 116.085938 167.828125 " fill-opacity="1" fill-rule="nonzero"/><path fill="#ffffff" d="M 109.886719 165.683594 C 108.8125 165.277344 107.769531 164.863281 106.757812 164.441406 L 106.757812 144.25 C 107.878906 144.695312 109.027344 145.136719 110.207031 145.5625 L 110.207031 165.34375 C 110.207031 165.464844 110.074219 165.582031 109.886719 165.683594 " fill-opacity="1" fill-rule="nonzero"/><path fill="#ffffff" d="M 103.445312 163.007812 C 102.5625 162.601562 101.710938 162.191406 100.875 161.769531 L 100.875 141.671875 C 101.992188 142.210938 103.140625 142.738281 104.332031 143.253906 L 104.332031 162.488281 C 104.332031 162.710938 103.964844 162.890625 103.445312 163.007812 " fill-opacity="1" fill-rule="nonzero"/><path fill="#ffffff" d="M 97.738281 160.101562 C 96.785156 159.570312 95.871094 159.027344 95.003906 158.46875 L 95.003906 138.515625 C 96.101562 139.179688 97.238281 139.835938 98.457031 140.472656 L 98.457031 159.628906 C 98.457031 159.824219 98.160156 159.992188 97.738281 160.101562 " fill-opacity="1" fill-rule="nonzero"/><path fill="#ffffff" d="M 92.554688 156.816406 C 91.296875 155.902344 90.164062 154.972656 89.117188 154.027344 L 89.117188 134.429688 C 90.175781 135.292969 91.34375 136.144531 92.582031 136.976562 L 92.582031 156.769531 L 92.554688 156.816406 " fill-opacity="1" fill-rule="nonzero"/><path fill="#ffffff" d="M 86.703125 151.570312 C 85.148438 149.773438 83.992188 147.921875 83.25 146.023438 L 83.25 127.957031 C 84.15625 129.40625 85.3125 130.835938 86.703125 132.226562 L 86.703125 151.570312 " fill-opacity="1" fill-rule="nonzero"/><g clip-path="url(#0285ce6f84)"><path fill="#028900" d="M 303.472656 107.578125 L 303.472656 85.714844 L 95.113281 85.714844 L 95.113281 107.578125 C 95.113281 127.832031 141.753906 144.25 199.292969 144.25 C 256.824219 144.25 303.472656 127.832031 303.472656 107.578125 " fill-opacity="1" fill-rule="nonzero"/></g><g clip-path="url(#ea7036022f)"><path fill="#028900" d="M 199.292969 120.773438 C 141.753906 120.773438 95.113281 104.355469 95.113281 84.105469 C 95.113281 63.851562 141.753906 47.441406 199.292969 47.441406 C 256.824219 47.441406 303.472656 63.851562 303.472656 84.105469 C 303.472656 104.355469 256.824219 120.773438 199.292969 120.773438 " fill-opacity="1" fill-rule="nonzero"/></g><path fill="#028900" d="M 205.5625 98.421875 C 209.734375 98.148438 213.140625 97.464844 215.765625 96.378906 C 218.378906 95.289062 219.6875 94.003906 219.6875 92.535156 C 219.6875 91.222656 218.59375 90.085938 216.382812 89.140625 C 214.183594 88.1875 210.585938 87.449219 205.5625 86.941406 Z M 193.4375 67.121094 C 190.15625 67.507812 187.53125 68.175781 185.582031 69.113281 C 183.632812 70.058594 182.65625 71.09375 182.65625 72.234375 C 182.65625 73.28125 183.546875 74.242188 185.328125 75.128906 C 187.113281 76.027344 189.8125 76.746094 193.4375 77.292969 Z M 193.4375 98.011719 L 193.4375 85.683594 C 182.511719 84.578125 174.511719 82.921875 169.398438 80.6875 C 164.308594 78.464844 161.757812 75.765625 161.757812 72.585938 C 161.757812 69.371094 164.644531 66.664062 170.410156 64.476562 C 176.171875 62.292969 183.851562 61.03125 193.4375 60.699219 L 193.4375 57.785156 L 205.5625 57.785156 L 205.5625 60.699219 C 214.421875 61.070312 221.464844 62.136719 226.710938 63.894531 C 231.957031 65.644531 235.300781 67.996094 236.738281 70.9375 L 215.597656 71.914062 C 214.3125 69.59375 210.964844 68.027344 205.5625 67.207031 L 205.5625 78.703125 C 218.941406 79.980469 228.054688 81.632812 232.902344 83.660156 C 237.746094 85.695312 240.171875 88.296875 240.171875 91.476562 C 240.171875 95.03125 237.117188 98.015625 231.027344 100.445312 C 224.917969 102.882812 216.429688 104.371094 205.5625 104.925781 L 205.5625 110.421875 L 193.4375 110.421875 L 193.4375 105.070312 C 183.796875 104.660156 175.964844 103.398438 169.941406 101.273438 C 163.929688 99.152344 160.085938 96.164062 158.414062 92.304688 L 180.226562 91.476562 C 181.125 93.046875 182.789062 94.394531 185.25 95.539062 C 187.695312 96.671875 190.429688 97.496094 193.4375 98.011719 " fill-opacity="1" fill-rule="nonzero"/><path fill="#ffffff" d="M 291.703125 122.273438 L 291.671875 122.222656 L 291.671875 102.4375 C 292.910156 101.597656 294.078125 100.75 295.128906 99.878906 L 295.128906 119.476562 C 294.085938 120.425781 292.957031 121.355469 291.703125 122.273438 " fill-opacity="1" fill-rule="nonzero"/><path fill="#ffffff" d="M 286.515625 125.558594 C 286.09375 125.445312 285.796875 125.277344 285.796875 125.078125 L 285.796875 105.929688 C 287.015625 105.292969 288.15625 104.632812 289.257812 103.972656 L 289.257812 123.921875 C 288.386719 124.480469 287.464844 125.023438 286.515625 125.558594 " fill-opacity="1" fill-rule="nonzero"/><path fill="#ffffff" d="M 297.554688 117.023438 L 297.554688 97.679688 C 298.945312 96.292969 300.097656 94.867188 301.003906 93.410156 L 301.003906 111.476562 C 300.261719 113.371094 299.109375 115.230469 297.554688 117.023438 " fill-opacity="1" fill-rule="nonzero"/><path fill="#ffffff" d="M 280.808594 128.464844 C 280.292969 128.355469 279.917969 128.160156 279.917969 127.933594 L 279.917969 108.710938 C 281.113281 108.1875 282.261719 107.667969 283.378906 107.128906 L 283.378906 127.21875 C 282.539062 127.644531 281.6875 128.050781 280.808594 128.464844 " fill-opacity="1" fill-rule="nonzero"/><path fill="#ffffff" d="M 274.367188 131.132812 C 274.175781 131.039062 274.046875 130.925781 274.046875 130.796875 L 274.046875 111.019531 C 275.226562 110.585938 276.375 110.144531 277.5 109.703125 L 277.5 129.894531 C 276.476562 130.316406 275.4375 130.730469 274.367188 131.132812 " fill-opacity="1" fill-rule="nonzero"/><path fill="#ffffff" d="M 268.171875 133.289062 L 268.171875 112.984375 C 269.34375 112.625 270.5 112.25 271.625 111.863281 L 271.625 132.136719 C 270.5 132.527344 269.34375 132.914062 268.171875 133.289062 " fill-opacity="1" fill-rule="nonzero"/><path fill="#ffffff" d="M 262.289062 135.015625 L 262.289062 114.683594 C 263.457031 114.378906 264.613281 114.054688 265.738281 113.726562 L 265.738281 134.027344 C 264.609375 134.367188 263.464844 134.699219 262.289062 135.015625 " fill-opacity="1" fill-rule="nonzero"/><path fill="#ffffff" d="M 256.40625 136.519531 L 256.40625 116.15625 C 257.582031 115.875 258.726562 115.59375 259.867188 115.308594 L 259.867188 135.65625 C 258.726562 135.957031 257.582031 136.242188 256.40625 136.519531 " fill-opacity="1" fill-rule="nonzero"/><path fill="#ffffff" d="M 250.53125 137.792969 L 250.53125 117.410156 C 251.699219 117.179688 252.851562 116.941406 253.984375 116.691406 L 253.984375 137.066406 C 252.851562 137.320312 251.699219 137.5625 250.53125 137.792969 " fill-opacity="1" fill-rule="nonzero"/><path fill="#ffffff" d="M 244.660156 138.910156 L 244.660156 118.503906 C 245.820312 118.300781 246.96875 118.09375 248.113281 117.882812 L 248.113281 138.28125 C 246.976562 138.5 245.816406 138.707031 244.660156 138.910156 " fill-opacity="1" fill-rule="nonzero"/><path fill="#ffffff" d="M 238.777344 139.851562 L 238.777344 119.421875 C 239.941406 119.253906 241.089844 119.074219 242.234375 118.898438 L 242.234375 139.3125 C 241.089844 139.488281 239.941406 139.679688 238.777344 139.851562 " fill-opacity="1" fill-rule="nonzero"/><path fill="#ffffff" d="M 159.804688 139.851562 C 158.640625 139.679688 157.492188 139.488281 156.34375 139.3125 L 156.34375 118.898438 C 157.492188 119.074219 158.640625 119.253906 159.804688 119.421875 L 159.804688 139.851562 " fill-opacity="1" fill-rule="nonzero"/><path fill="#ffffff" d="M 153.921875 138.910156 C 152.761719 138.707031 151.605469 138.5 150.46875 138.28125 L 150.46875 117.882812 C 151.617188 118.09375 152.757812 118.300781 153.921875 118.503906 L 153.921875 138.910156 " fill-opacity="1" fill-rule="nonzero"/><path fill="#ffffff" d="M 148.046875 137.792969 C 146.878906 137.5625 145.734375 137.320312 144.59375 137.066406 L 144.59375 116.691406 C 145.734375 116.941406 146.878906 117.179688 148.046875 117.410156 L 148.046875 137.792969 " fill-opacity="1" fill-rule="nonzero"/><path fill="#ffffff" d="M 142.171875 136.519531 C 141 136.242188 139.847656 135.957031 138.714844 135.65625 L 138.714844 115.308594 C 139.847656 115.59375 141 115.875 142.171875 116.15625 L 142.171875 136.519531 " fill-opacity="1" fill-rule="nonzero"/><path fill="#ffffff" d="M 136.292969 135.015625 C 135.121094 134.699219 133.96875 134.367188 132.839844 134.027344 L 132.839844 113.726562 C 133.964844 114.054688 135.125 114.378906 136.292969 114.683594 L 136.292969 135.015625 " fill-opacity="1" fill-rule="nonzero"/><path fill="#ffffff" d="M 189.1875 142.441406 C 188.027344 142.402344 186.886719 142.347656 185.734375 142.300781 L 185.734375 121.835938 C 186.886719 121.894531 188.027344 121.945312 189.1875 121.980469 L 189.1875 142.441406 " fill-opacity="1" fill-rule="nonzero"/><path fill="#ffffff" d="M 183.308594 142.1875 C 182.152344 142.121094 181 142.046875 179.859375 141.972656 L 179.859375 121.507812 C 181 121.582031 182.152344 121.664062 183.308594 121.734375 L 183.308594 142.1875 " fill-opacity="1" fill-rule="nonzero"/><path fill="#ffffff" d="M 195.066406 142.589844 C 193.90625 142.570312 192.757812 142.542969 191.613281 142.511719 L 191.613281 122.050781 C 192.757812 122.074219 193.90625 122.097656 195.066406 122.125 L 195.066406 142.589844 " fill-opacity="1" fill-rule="nonzero"/><path fill="#ffffff" d="M 199.292969 142.625 C 198.6875 142.625 198.09375 142.609375 197.488281 142.609375 L 197.488281 122.136719 C 198.09375 122.140625 198.6875 122.15625 199.292969 122.15625 C 199.847656 122.15625 200.394531 122.144531 200.941406 122.140625 L 200.941406 142.609375 C 200.394531 142.609375 199.847656 142.625 199.292969 142.625 " fill-opacity="1" fill-rule="nonzero"/><path fill="#ffffff" d="M 203.371094 142.589844 L 203.371094 122.125 C 204.523438 122.105469 205.667969 122.078125 206.824219 122.054688 L 206.824219 142.515625 C 205.667969 142.542969 204.523438 142.570312 203.371094 142.589844 " fill-opacity="1" fill-rule="nonzero"/><path fill="#ffffff" d="M 209.242188 142.449219 L 209.242188 121.988281 C 210.40625 121.949219 211.550781 121.894531 212.695312 121.839844 L 212.695312 142.308594 C 211.550781 142.359375 210.40625 142.417969 209.242188 142.449219 " fill-opacity="1" fill-rule="nonzero"/><path fill="#ffffff" d="M 215.125 142.191406 L 215.125 121.738281 C 216.28125 121.671875 217.425781 121.589844 218.574219 121.519531 L 218.574219 141.980469 C 217.425781 142.050781 216.28125 142.136719 215.125 142.191406 " fill-opacity="1" fill-rule="nonzero"/><path fill="#ffffff" d="M 221 141.808594 L 221 121.355469 C 222.15625 121.261719 223.304688 121.171875 224.453125 121.074219 L 224.453125 141.527344 C 223.3125 141.628906 222.15625 141.722656 221 141.808594 " fill-opacity="1" fill-rule="nonzero"/><path fill="#ffffff" d="M 226.875 141.289062 L 226.875 120.84375 C 228.03125 120.730469 229.195312 120.625 230.332031 120.5 L 230.332031 140.941406 C 229.195312 141.070312 228.03125 141.175781 226.875 141.289062 " fill-opacity="1" fill-rule="nonzero"/><path fill="#ffffff" d="M 232.753906 140.648438 L 232.753906 120.214844 C 233.914062 120.074219 235.066406 119.933594 236.203125 119.777344 L 236.203125 140.210938 C 235.066406 140.363281 233.914062 140.507812 232.753906 140.648438 " fill-opacity="1" fill-rule="nonzero"/><path fill="#ffffff" d="M 177.433594 141.792969 C 176.277344 141.707031 175.125 141.613281 173.976562 141.511719 L 173.976562 121.0625 C 175.125 121.160156 176.277344 121.253906 177.433594 121.339844 L 177.433594 141.792969 " fill-opacity="1" fill-rule="nonzero"/><path fill="#ffffff" d="M 171.5625 141.273438 C 170.398438 141.167969 169.242188 141.042969 168.105469 140.921875 L 168.105469 120.480469 C 169.242188 120.609375 170.398438 120.71875 171.5625 120.832031 L 171.5625 141.273438 " fill-opacity="1" fill-rule="nonzero"/><path fill="#ffffff" d="M 165.675781 140.632812 C 164.515625 140.488281 163.367188 140.34375 162.222656 140.1875 L 162.222656 119.761719 C 163.367188 119.917969 164.515625 120.054688 165.675781 120.195312 L 165.675781 140.632812 " fill-opacity="1" fill-rule="nonzero"/><path fill="#ffffff" d="M 130.414062 133.289062 C 129.238281 132.914062 128.082031 132.527344 126.960938 132.136719 L 126.960938 111.863281 C 128.082031 112.25 129.238281 112.625 130.414062 112.984375 L 130.414062 133.289062 " fill-opacity="1" fill-rule="nonzero"/><path fill="#ffffff" d="M 124.214844 131.132812 C 123.144531 130.730469 122.105469 130.316406 121.085938 129.894531 L 121.085938 109.703125 C 122.207031 110.144531 123.359375 110.585938 124.535156 111.019531 L 124.535156 130.796875 C 124.535156 130.925781 124.402344 131.039062 124.214844 131.132812 " fill-opacity="1" fill-rule="nonzero"/><path fill="#ffffff" d="M 117.777344 128.464844 C 116.890625 128.050781 116.039062 127.644531 115.207031 127.21875 L 115.207031 107.128906 C 116.316406 107.667969 117.46875 108.1875 118.65625 108.710938 L 118.65625 127.933594 C 118.65625 128.160156 118.289062 128.355469 117.777344 128.464844 " fill-opacity="1" fill-rule="nonzero"/><path fill="#ffffff" d="M 112.0625 125.558594 C 111.113281 125.023438 110.195312 124.480469 109.328125 123.921875 L 109.328125 103.972656 C 110.425781 104.632812 111.570312 105.292969 112.785156 105.929688 L 112.785156 125.078125 C 112.785156 125.277344 112.488281 125.445312 112.0625 125.558594 " fill-opacity="1" fill-rule="nonzero"/><path fill="#ffffff" d="M 106.878906 122.273438 C 105.621094 121.355469 104.488281 120.425781 103.445312 119.476562 L 103.445312 99.878906 C 104.5 100.75 105.671875 101.597656 106.910156 102.4375 L 106.910156 122.222656 L 106.878906 122.273438 " fill-opacity="1" fill-rule="nonzero"/><path fill="#ffffff" d="M 101.03125 117.023438 C 99.472656 115.230469 98.320312 113.371094 97.570312 111.476562 L 97.570312 93.410156 C 98.488281 94.867188 99.636719 96.292969 101.03125 97.679688 L 101.03125 117.023438 " fill-opacity="1" fill-rule="nonzero"/></svg>