<svg xmlns="http://www.w3.org/2000/svg" xmlns:xlink="http://www.w3.org/1999/xlink" width="512" zoomAndPan="magnify" viewBox="0 0 384 383.999986" height="512" preserveAspectRatio="xMidYMid meet" version="1.0"><defs><clipPath id="931a9b477a"><path d="M 23 149 L 361 149 L 361 345.800781 L 23 345.800781 Z M 23 149 " clip-rule="nonzero"/></clipPath></defs><g clip-path="url(#931a9b477a)"><path fill="#0000ff" d="M 43.296875 342.132812 C 38.710938 346.734375 31.238281 346.734375 26.652344 342.132812 C 22.050781 337.550781 22.050781 330.089844 26.652344 325.492188 L 144.417969 207.726562 C 148.65625 203.488281 155.410156 203.109375 160.105469 206.847656 L 230.371094 263.074219 L 340.691406 152.769531 C 345.277344 148.167969 352.75 148.167969 357.335938 152.769531 C 361.9375 157.371094 361.9375 164.828125 357.335938 169.414062 L 239.570312 287.179688 C 235.332031 291.433594 228.582031 291.808594 223.886719 288.058594 L 153.621094 231.828125 Z M 43.296875 342.132812 " fill-opacity="1" fill-rule="evenodd"/></g><path fill="#0000ff" d="M 301.910156 172.867188 C 295.40625 172.867188 290.132812 167.589844 290.132812 161.089844 C 290.132812 154.589844 295.40625 149.316406 301.910156 149.316406 L 349.015625 149.316406 C 355.515625 149.316406 360.789062 154.589844 360.789062 161.089844 L 360.789062 208.195312 C 360.789062 214.699219 355.515625 219.972656 349.015625 219.972656 C 342.515625 219.972656 337.238281 214.699219 337.238281 208.195312 L 337.238281 172.867188 Z M 301.910156 172.867188 " fill-opacity="1" fill-rule="evenodd"/><path fill="#0000ff" d="M 74.339844 255.601562 L 74.339844 207.835938 C 74.339844 206.578125 74.828125 205.386719 75.722656 204.507812 C 76.601562 203.613281 77.792969 203.125 79.050781 203.125 L 103.84375 203.125 C 106.449219 203.125 108.554688 205.230469 108.554688 207.835938 L 108.554688 221.371094 Z M 125.667969 204.253906 L 125.667969 122.277344 C 125.667969 121.035156 126.15625 119.84375 127.050781 118.945312 C 127.929688 118.066406 129.125 117.566406 130.378906 117.566406 L 155.171875 117.566406 C 157.78125 117.566406 159.882812 119.683594 159.882812 122.277344 L 159.882812 189.511719 C 150.652344 187.03125 140.460938 189.480469 133.316406 196.625 Z M 177 200.265625 L 177 36.730469 C 177 35.476562 177.484375 34.28125 178.382812 33.402344 C 179.261719 32.523438 180.453125 32.019531 181.710938 32.019531 L 206.503906 32.019531 C 207.757812 32.019531 208.953125 32.523438 209.832031 33.402344 C 210.726562 34.28125 211.214844 35.476562 211.214844 36.730469 L 211.214844 227.636719 C 199.703125 218.433594 185.398438 206.988281 177 200.265625 Z M 228.328125 241.328125 L 228.328125 88.0625 C 228.328125 85.453125 230.433594 83.351562 233.039062 83.351562 L 257.832031 83.351562 C 260.441406 83.351562 262.542969 85.453125 262.542969 88.0625 L 262.542969 208.699219 L 229.207031 242.035156 C 229.207031 242.035156 228.894531 241.785156 228.328125 241.328125 Z M 228.328125 241.328125 " fill-opacity="1" fill-rule="evenodd"/></svg>