<svg xmlns="http://www.w3.org/2000/svg" xmlns:xlink="http://www.w3.org/1999/xlink" width="512" zoomAndPan="magnify" viewBox="0 0 384 383.999986" height="512" preserveAspectRatio="xMidYMid meet" version="1.0"><defs><clipPath id="dd38ae4bf4"><path d="M 95.832031 38.398438 L 287.832031 38.398438 L 287.832031 237 L 95.832031 237 Z M 95.832031 38.398438 " clip-rule="nonzero"/></clipPath><clipPath id="da8f027a18"><path d="M 95.832031 144 L 287.832031 144 L 287.832031 343.648438 L 95.832031 343.648438 Z M 95.832031 144 " clip-rule="nonzero"/></clipPath></defs><g clip-path="url(#dd38ae4bf4)"><path fill="#0000ff" d="M 152.0625 236.992188 C 118.628906 219.339844 95.835938 184.21875 95.835938 143.769531 C 95.835938 85.578125 143.015625 38.398438 201.207031 38.398438 C 237.324219 38.398438 269.191406 56.566406 288.167969 84.257812 C 273.496094 76.496094 256.769531 72.113281 239.015625 72.113281 C 180.820312 72.113281 133.644531 119.28125 133.644531 177.484375 C 133.652344 199.554688 140.441406 220.0625 152.0625 236.992188 Z M 152.0625 236.992188 " fill-opacity="1" fill-rule="nonzero"/></g><g clip-path="url(#da8f027a18)"><path fill="#0000ff" d="M 231.945312 144.71875 C 265.386719 162.367188 288.167969 197.488281 288.167969 237.9375 C 288.167969 296.125 240.992188 343.308594 182.796875 343.308594 C 146.683594 343.308594 114.816406 325.144531 95.835938 297.453125 C 110.511719 305.210938 127.238281 309.597656 144.992188 309.597656 C 203.179688 309.597656 250.363281 262.429688 250.363281 204.226562 C 250.355469 182.152344 243.566406 161.652344 231.945312 144.71875 Z M 231.945312 144.71875 " fill-opacity="1" fill-rule="nonzero"/></g></svg>