<svg xmlns="http://www.w3.org/2000/svg" xmlns:xlink="http://www.w3.org/1999/xlink" width="512" zoomAndPan="magnify" viewBox="0 0 384 383.999986" height="512" preserveAspectRatio="xMidYMid meet" version="1.0"><defs><clipPath id="d2addf8d2f"><path d="M 59 42.605469 L 367 42.605469 L 367 342.605469 L 59 342.605469 Z M 59 42.605469 " clip-rule="nonzero"/></clipPath></defs><g clip-path="url(#d2addf8d2f)"><path fill="#0000ff" d="M 364.761719 147.5625 L 361.613281 150.992188 L 351.605469 161.859375 L 341.167969 173.300781 L 316.574219 199.894531 L 301.414062 216.484375 C 300.722656 217.203125 299.917969 217.765625 299 218.160156 C 298.082031 218.558594 297.125 218.761719 296.125 218.769531 L 295.410156 218.769531 C 294.273438 218.632812 293.226562 218.25 292.273438 217.621094 C 291.316406 216.992188 290.550781 216.183594 289.976562 215.195312 L 269.527344 180.734375 C 269.289062 180.328125 269.09375 179.90625 268.941406 179.460938 C 268.785156 179.019531 268.671875 178.5625 268.605469 178.097656 C 268.539062 177.632812 268.515625 177.167969 268.539062 176.699219 C 268.5625 176.226562 268.628906 175.765625 268.742188 175.308594 C 268.855469 174.851562 269.011719 174.410156 269.207031 173.984375 C 269.40625 173.558594 269.640625 173.15625 269.917969 172.773438 C 270.191406 172.394531 270.503906 172.042969 270.847656 171.722656 C 271.191406 171.402344 271.5625 171.117188 271.960938 170.867188 C 272.367188 170.636719 272.796875 170.441406 273.246094 170.292969 C 273.691406 170.140625 274.148438 170.035156 274.617188 169.972656 C 275.085938 169.910156 275.554688 169.894531 276.023438 169.921875 C 276.496094 169.953125 276.960938 170.027344 277.417969 170.144531 C 277.875 170.265625 278.316406 170.425781 278.738281 170.628906 C 279.164062 170.835938 279.566406 171.078125 279.945312 171.363281 C 280.320312 171.644531 280.667969 171.960938 280.984375 172.3125 C 281.300781 172.660156 281.582031 173.039062 281.824219 173.441406 L 297.410156 199.894531 L 316.574219 178.875 L 333.300781 160.574219 L 343.027344 149.992188 L 352.75 139.410156 L 354.179688 137.839844 C 354.5 137.492188 354.847656 137.175781 355.230469 136.898438 C 355.609375 136.621094 356.015625 136.382812 356.441406 136.183594 C 356.871094 135.984375 357.3125 135.828125 357.773438 135.71875 C 358.230469 135.605469 358.695312 135.539062 359.167969 135.519531 C 359.636719 135.5 360.105469 135.527344 360.574219 135.601562 C 361.039062 135.671875 361.492188 135.789062 361.9375 135.953125 C 362.378906 136.113281 362.800781 136.316406 363.207031 136.5625 C 363.609375 136.808594 363.984375 137.089844 364.332031 137.410156 C 364.679688 137.726562 364.992188 138.078125 365.269531 138.460938 C 365.546875 138.839844 365.789062 139.246094 365.984375 139.671875 C 366.183594 140.101562 366.339844 140.542969 366.453125 141 C 366.5625 141.460938 366.628906 141.925781 366.648438 142.394531 C 366.667969 142.867188 366.640625 143.335938 366.570312 143.800781 C 366.496094 144.269531 366.378906 144.722656 366.21875 145.167969 C 366.054688 145.609375 365.851562 146.03125 365.605469 146.4375 C 365.363281 146.839844 365.078125 147.214844 364.761719 147.5625 Z M 364.761719 147.5625 L 361.613281 150.992188 L 351.605469 161.859375 L 341.167969 173.300781 L 316.574219 199.894531 L 301.414062 216.484375 C 300.722656 217.203125 299.917969 217.765625 299 218.160156 C 298.082031 218.558594 297.125 218.761719 296.125 218.769531 L 295.410156 218.769531 C 294.273438 218.632812 293.226562 218.25 292.273438 217.621094 C 291.316406 216.992188 290.550781 216.183594 289.976562 215.195312 L 269.527344 180.734375 C 269.289062 180.328125 269.09375 179.90625 268.941406 179.460938 C 268.785156 179.019531 268.671875 178.5625 268.605469 178.097656 C 268.539062 177.632812 268.515625 177.167969 268.539062 176.699219 C 268.5625 176.226562 268.628906 175.765625 268.742188 175.308594 C 268.855469 174.851562 269.011719 174.410156 269.207031 173.984375 C 269.40625 173.558594 269.640625 173.15625 269.917969 172.773438 C 270.191406 172.394531 270.503906 172.042969 270.847656 171.722656 C 271.191406 171.402344 271.5625 171.117188 271.960938 170.867188 C 272.367188 170.636719 272.796875 170.441406 273.246094 170.292969 C 273.691406 170.140625 274.148438 170.035156 274.617188 169.972656 C 275.085938 169.910156 275.554688 169.894531 276.023438 169.921875 C 276.496094 169.953125 276.960938 170.027344 277.417969 170.144531 C 277.875 170.265625 278.316406 170.425781 278.738281 170.628906 C 279.164062 170.835938 279.566406 171.078125 279.945312 171.363281 C 280.320312 171.644531 280.667969 171.960938 280.984375 172.3125 C 281.300781 172.660156 281.582031 173.039062 281.824219 173.441406 L 297.410156 199.894531 L 316.574219 178.875 L 333.300781 160.574219 L 343.027344 149.992188 L 352.75 139.410156 L 354.179688 137.839844 C 354.5 137.492188 354.847656 137.175781 355.230469 136.898438 C 355.609375 136.621094 356.015625 136.382812 356.441406 136.183594 C 356.871094 135.984375 357.3125 135.828125 357.773438 135.71875 C 358.230469 135.605469 358.695312 135.539062 359.167969 135.519531 C 359.636719 135.5 360.105469 135.527344 360.574219 135.601562 C 361.039062 135.671875 361.492188 135.789062 361.9375 135.953125 C 362.378906 136.113281 362.800781 136.316406 363.207031 136.5625 C 363.609375 136.808594 363.984375 137.089844 364.332031 137.410156 C 364.679688 137.726562 364.992188 138.078125 365.269531 138.460938 C 365.546875 138.839844 365.789062 139.246094 365.984375 139.671875 C 366.183594 140.101562 366.339844 140.542969 366.453125 141 C 366.5625 141.460938 366.628906 141.925781 366.648438 142.394531 C 366.667969 142.867188 366.640625 143.335938 366.570312 143.800781 C 366.496094 144.269531 366.378906 144.722656 366.21875 145.167969 C 366.054688 145.609375 365.851562 146.03125 365.605469 146.4375 C 365.363281 146.839844 365.078125 147.214844 364.761719 147.5625 Z M 354.894531 169.011719 L 306.707031 221.488281 C 305.3125 222.917969 303.699219 224.027344 301.867188 224.820312 C 300.035156 225.613281 298.121094 226.027344 296.125 226.0625 L 294.550781 226.0625 C 293.441406 225.929688 292.359375 225.667969 291.308594 225.28125 C 290.261719 224.890625 289.269531 224.386719 288.339844 223.765625 C 287.40625 223.144531 286.558594 222.425781 285.796875 221.605469 C 285.035156 220.785156 284.378906 219.886719 283.828125 218.914062 L 263.378906 184.453125 C 263.085938 184.050781 262.816406 183.632812 262.566406 183.199219 C 262.316406 182.769531 262.089844 182.324219 261.886719 181.871094 C 261.683594 181.414062 261.503906 180.949219 261.347656 180.472656 C 261.195312 180 261.066406 179.519531 260.960938 179.03125 C 260.855469 178.542969 260.777344 178.050781 260.726562 177.554688 C 260.671875 177.058594 260.644531 176.5625 260.644531 176.0625 C 260.644531 175.566406 260.667969 175.066406 260.722656 174.570312 C 260.773438 174.074219 260.847656 173.582031 260.953125 173.09375 C 261.054688 172.605469 261.183594 172.125 261.335938 171.648438 C 261.488281 171.175781 261.667969 170.710938 261.867188 170.253906 C 262.070312 169.796875 262.296875 169.351562 262.542969 168.921875 C 262.792969 168.488281 263.0625 168.070312 263.355469 167.664062 C 263.648438 167.261719 263.960938 166.875 264.292969 166.503906 C 264.625 166.128906 264.976562 165.777344 265.347656 165.441406 C 265.71875 165.109375 266.101562 164.792969 266.507812 164.5 C 266.910156 164.203125 267.324219 163.933594 267.757812 163.679688 C 268.1875 163.429688 268.632812 163.203125 269.085938 163 C 269.542969 162.792969 270.003906 162.613281 270.480469 162.457031 C 270.953125 162.304688 271.433594 162.171875 271.921875 162.066406 C 272.410156 161.960938 272.902344 161.882812 273.398438 161.828125 C 273.894531 161.773438 274.390625 161.746094 274.890625 161.742188 C 275.386719 161.742188 275.886719 161.765625 276.382812 161.816406 C 276.878906 161.867188 277.371094 161.941406 277.859375 162.042969 C 278.347656 162.144531 278.828125 162.273438 279.304688 162.425781 C 279.777344 162.578125 280.246094 162.753906 280.703125 162.953125 C 281.15625 163.15625 281.601562 163.378906 282.035156 163.625 C 282.46875 163.875 282.886719 164.144531 283.292969 164.433594 C 283.699219 164.726562 284.085938 165.039062 284.460938 165.371094 C 284.832031 165.703125 285.183594 166.050781 285.519531 166.421875 C 285.855469 166.789062 286.171875 167.175781 286.46875 167.578125 C 286.761719 167.980469 287.035156 168.394531 287.289062 168.828125 C 287.539062 169.257812 287.769531 169.699219 287.972656 170.152344 L 298.699219 188.027344 L 338.019531 145.128906 C 331.726562 139.417969 324.574219 135.128906 316.574219 132.261719 C 309.648438 129.710938 302.5 128.425781 295.125 128.402344 C 294.070312 128.402344 293.019531 128.425781 291.964844 128.476562 C 290.914062 128.53125 289.863281 128.605469 288.816406 128.710938 C 287.769531 128.8125 286.722656 128.941406 285.683594 129.097656 C 284.640625 129.25 283.601562 129.429688 282.570312 129.636719 C 281.539062 129.84375 280.511719 130.074219 279.488281 130.328125 C 278.46875 130.585938 277.453125 130.867188 276.445312 131.171875 C 275.4375 131.476562 274.4375 131.808594 273.445312 132.160156 C 272.453125 132.515625 271.472656 132.894531 270.5 133.296875 C 269.527344 133.703125 268.5625 134.128906 267.613281 134.578125 C 266.660156 135.027344 265.71875 135.503906 264.792969 136 C 263.863281 136.496094 262.945312 137.015625 262.042969 137.554688 C 261.140625 138.097656 260.25 138.660156 259.375 139.246094 C 258.5 139.828125 257.636719 140.4375 256.792969 141.0625 C 255.945312 141.691406 255.117188 142.339844 254.304688 143.007812 C 253.488281 143.675781 252.691406 144.363281 251.910156 145.070312 C 251.132812 145.777344 250.367188 146.503906 249.625 147.246094 C 248.878906 147.992188 248.152344 148.753906 247.445312 149.535156 C 246.738281 150.316406 246.050781 151.113281 245.382812 151.925781 C 244.714844 152.738281 244.066406 153.570312 243.441406 154.414062 C 242.8125 155.261719 242.207031 156.121094 241.621094 156.996094 C 241.035156 157.875 240.472656 158.761719 239.933594 159.667969 C 239.390625 160.570312 238.871094 161.484375 238.375 162.414062 C 237.878906 163.34375 237.40625 164.28125 236.957031 165.234375 C 236.503906 166.1875 236.078125 167.148438 235.675781 168.121094 C 235.273438 169.09375 234.894531 170.078125 234.539062 171.070312 C 234.183594 172.0625 233.855469 173.058594 233.546875 174.066406 C 233.242188 175.074219 232.960938 176.089844 232.707031 177.113281 C 232.449219 178.132812 232.21875 179.160156 232.015625 180.191406 C 231.808594 181.226562 231.628906 182.261719 231.472656 183.304688 C 231.320312 184.347656 231.191406 185.390625 231.085938 186.441406 C 230.984375 187.488281 230.90625 188.539062 230.855469 189.589844 C 230.804688 190.640625 230.777344 191.695312 230.777344 192.746094 C 230.777344 193.800781 230.804688 194.851562 230.855469 195.902344 C 230.90625 196.957031 230.984375 198.003906 231.085938 199.054688 C 231.191406 200.101562 231.320312 201.144531 231.472656 202.1875 C 231.628906 203.230469 231.808594 204.265625 232.015625 205.300781 C 232.21875 206.332031 232.449219 207.359375 232.707031 208.382812 C 232.960938 209.402344 233.242188 210.417969 233.546875 211.425781 C 233.855469 212.433594 234.183594 213.433594 234.539062 214.425781 C 234.894531 215.414062 235.273438 216.398438 235.675781 217.371094 C 236.078125 218.34375 236.503906 219.304688 236.957031 220.257812 C 237.40625 221.210938 237.878906 222.148438 238.375 223.078125 C 238.871094 224.007812 239.390625 224.921875 239.933594 225.828125 C 240.472656 226.730469 241.035156 227.621094 241.621094 228.496094 C 242.207031 229.371094 242.8125 230.230469 243.441406 231.078125 C 244.066406 231.921875 244.714844 232.753906 245.382812 233.566406 C 246.050781 234.382812 246.738281 235.179688 247.445312 235.957031 C 248.152344 236.738281 248.878906 237.5 249.625 238.246094 C 250.367188 238.992188 251.132812 239.714844 251.910156 240.421875 C 252.691406 241.132812 253.488281 241.820312 254.304688 242.488281 C 255.117188 243.15625 255.945312 243.800781 256.792969 244.429688 C 257.636719 245.058594 258.5 245.664062 259.375 246.25 C 260.25 246.832031 261.140625 247.398438 262.042969 247.9375 C 262.945312 248.480469 263.863281 249 264.792969 249.496094 C 265.71875 249.992188 266.660156 250.464844 267.613281 250.914062 C 268.5625 251.363281 269.527344 251.792969 270.5 252.195312 C 271.472656 252.597656 272.453125 252.976562 273.445312 253.332031 C 274.4375 253.6875 275.4375 254.015625 276.445312 254.320312 C 277.453125 254.628906 278.46875 254.910156 279.488281 255.164062 C 280.511719 255.421875 281.539062 255.652344 282.570312 255.855469 C 283.601562 256.0625 284.640625 256.242188 285.683594 256.394531 C 286.722656 256.550781 287.769531 256.679688 288.816406 256.78125 C 289.863281 256.886719 290.914062 256.964844 291.964844 257.015625 C 293.019531 257.066406 294.070312 257.09375 295.125 257.09375 C 302.492188 257.113281 309.640625 255.875 316.574219 253.375 C 318.125 252.824219 319.65625 252.210938 321.164062 251.542969 C 322.671875 250.871094 324.152344 250.144531 325.605469 249.363281 C 327.054688 248.578125 328.476562 247.742188 329.863281 246.847656 C 331.25 245.957031 332.601562 245.011719 333.917969 244.015625 C 335.230469 243.019531 336.507812 241.976562 337.742188 240.882812 C 338.976562 239.789062 340.167969 238.648438 341.316406 237.460938 C 342.460938 236.277344 343.5625 235.050781 344.617188 233.78125 C 345.667969 232.511719 346.671875 231.203125 347.625 229.855469 C 348.578125 228.507812 349.476562 227.128906 350.324219 225.710938 C 351.171875 224.296875 351.960938 222.851562 352.699219 221.375 C 353.433594 219.898438 354.113281 218.394531 354.734375 216.867188 C 355.355469 215.339844 355.914062 213.789062 356.417969 212.21875 C 356.917969 210.644531 357.359375 209.058594 357.738281 207.453125 C 358.117188 205.847656 358.433594 204.230469 358.691406 202.597656 C 358.945312 200.96875 359.140625 199.332031 359.269531 197.6875 C 359.398438 196.042969 359.464844 194.394531 359.46875 192.746094 C 359.5 184.535156 357.976562 176.621094 354.894531 169.011719 Z M 216.480469 192.746094 C 216.480469 194.03125 216.515625 195.320312 216.578125 196.601562 C 216.644531 197.886719 216.742188 199.171875 216.871094 200.449219 C 217 201.730469 217.15625 203.007812 217.347656 204.277344 C 217.539062 205.550781 217.761719 206.816406 218.011719 208.078125 C 218.265625 209.339844 218.550781 210.59375 218.863281 211.84375 C 219.175781 213.089844 219.523438 214.328125 219.898438 215.558594 C 220.273438 216.789062 220.675781 218.011719 221.109375 219.222656 C 221.546875 220.433594 222.011719 221.632812 222.503906 222.820312 C 222.996094 224.007812 223.519531 225.183594 224.070312 226.347656 C 224.621094 227.507812 225.199219 228.65625 225.808594 229.792969 C 226.414062 230.925781 227.046875 232.042969 227.710938 233.148438 C 228.371094 234.25 229.0625 235.335938 229.777344 236.40625 C 230.492188 237.476562 231.234375 238.527344 232 239.558594 C 232.765625 240.59375 233.558594 241.605469 234.375 242.601562 C 235.191406 243.59375 236.03125 244.566406 236.894531 245.519531 C 237.757812 246.472656 238.644531 247.40625 239.554688 248.316406 C 240.464844 249.226562 241.394531 250.113281 242.347656 250.976562 C 243.300781 251.839844 244.277344 252.679688 245.269531 253.496094 C 246.265625 254.3125 247.277344 255.105469 248.3125 255.871094 C 249.34375 256.636719 250.394531 257.378906 251.464844 258.09375 C 252.535156 258.808594 253.621094 259.496094 254.722656 260.160156 C 255.824219 260.820312 256.945312 261.457031 258.078125 262.0625 C 259.214844 262.671875 260.359375 263.25 261.523438 263.800781 C 262.6875 264.351562 263.863281 264.875 265.050781 265.367188 C 266.238281 265.859375 267.4375 266.324219 268.648438 266.757812 C 269.859375 267.195312 271.078125 267.597656 272.308594 267.972656 C 273.539062 268.347656 274.78125 268.691406 276.027344 269.007812 C 277.273438 269.320312 278.527344 269.605469 279.789062 269.855469 C 281.050781 270.109375 282.320312 270.332031 283.589844 270.523438 C 284.863281 270.710938 286.140625 270.871094 287.417969 271 C 288.699219 271.128906 289.980469 271.226562 291.265625 271.289062 C 292.550781 271.355469 293.835938 271.390625 295.125 271.390625 C 302.417969 271.417969 309.566406 270.417969 316.574219 268.390625 L 316.574219 307.140625 C 316.574219 308.308594 316.515625 309.476562 316.398438 310.644531 C 316.285156 311.808594 316.113281 312.964844 315.886719 314.113281 C 315.65625 315.261719 315.371094 316.394531 315.03125 317.515625 C 314.691406 318.636719 314.300781 319.738281 313.851562 320.820312 C 313.402344 321.902344 312.902344 322.957031 312.351562 323.992188 C 311.800781 325.023438 311.199219 326.027344 310.546875 327 C 309.898438 327.972656 309.199219 328.914062 308.457031 329.816406 C 307.714844 330.722656 306.929688 331.589844 306.101562 332.417969 C 305.273438 333.246094 304.40625 334.03125 303.503906 334.773438 C 302.597656 335.515625 301.660156 336.210938 300.683594 336.863281 C 299.710938 337.511719 298.707031 338.113281 297.675781 338.667969 C 296.644531 339.21875 295.585938 339.71875 294.503906 340.167969 C 293.421875 340.613281 292.320312 341.007812 291.203125 341.347656 C 290.082031 341.6875 288.945312 341.972656 287.796875 342.199219 C 286.648438 342.429688 285.492188 342.601562 284.328125 342.714844 C 283.164062 342.828125 281.996094 342.886719 280.824219 342.886719 L 94.9375 342.886719 C 93.765625 342.886719 92.597656 342.828125 91.433594 342.714844 C 90.265625 342.601562 89.109375 342.429688 87.960938 342.199219 C 86.8125 341.972656 85.679688 341.6875 84.558594 341.347656 C 83.4375 341.007812 82.335938 340.613281 81.257812 340.167969 C 80.175781 339.71875 79.117188 339.21875 78.085938 338.667969 C 77.050781 338.113281 76.050781 337.511719 75.074219 336.863281 C 74.101562 336.210938 73.164062 335.515625 72.257812 334.773438 C 71.351562 334.03125 70.488281 333.246094 69.660156 332.417969 C 68.832031 331.589844 68.046875 330.722656 67.304688 329.816406 C 66.558594 328.914062 65.863281 327.972656 65.214844 327 C 64.5625 326.027344 63.960938 325.023438 63.410156 323.992188 C 62.859375 322.957031 62.359375 321.902344 61.910156 320.820312 C 61.460938 319.738281 61.066406 318.636719 60.726562 317.515625 C 60.386719 316.394531 60.105469 315.261719 59.875 314.113281 C 59.648438 312.964844 59.476562 311.808594 59.359375 310.644531 C 59.246094 309.476562 59.1875 308.308594 59.1875 307.140625 L 59.1875 78.355469 C 59.1875 77.183594 59.246094 76.015625 59.359375 74.851562 C 59.476562 73.683594 59.648438 72.527344 59.875 71.378906 C 60.105469 70.230469 60.386719 69.097656 60.726562 67.976562 C 61.066406 66.855469 61.460938 65.753906 61.910156 64.671875 C 62.359375 63.59375 62.859375 62.535156 63.410156 61.503906 C 63.960938 60.46875 64.5625 59.46875 65.214844 58.492188 C 65.863281 57.519531 66.558594 56.582031 67.304688 55.675781 C 68.046875 54.769531 68.832031 53.902344 69.660156 53.078125 C 70.488281 52.25 71.351562 51.464844 72.257812 50.71875 C 73.164062 49.976562 74.101562 49.28125 75.074219 48.628906 C 76.050781 47.980469 77.050781 47.378906 78.085938 46.828125 C 79.117188 46.273438 80.175781 45.773438 81.257812 45.328125 C 82.335938 44.878906 83.4375 44.484375 84.558594 44.144531 C 85.679688 43.804688 86.8125 43.519531 87.960938 43.292969 C 89.109375 43.0625 90.265625 42.894531 91.433594 42.777344 C 92.597656 42.664062 93.765625 42.605469 94.9375 42.605469 L 280.824219 42.605469 C 281.996094 42.605469 283.164062 42.664062 284.328125 42.777344 C 285.492188 42.894531 286.648438 43.0625 287.796875 43.292969 C 288.945312 43.519531 290.082031 43.804688 291.203125 44.144531 C 292.320312 44.484375 293.421875 44.878906 294.503906 45.328125 C 295.585938 45.773438 296.644531 46.273438 297.675781 46.828125 C 298.707031 47.378906 299.710938 47.980469 300.683594 48.628906 C 301.660156 49.28125 302.597656 49.976562 303.503906 50.71875 C 304.40625 51.464844 305.273438 52.25 306.101562 53.078125 C 306.929688 53.902344 307.714844 54.769531 308.457031 55.675781 C 309.199219 56.582031 309.898438 57.519531 310.546875 58.492188 C 311.199219 59.46875 311.800781 60.46875 312.351562 61.503906 C 312.902344 62.535156 313.402344 63.59375 313.851562 64.671875 C 314.300781 65.753906 314.691406 66.855469 315.03125 67.976562 C 315.371094 69.097656 315.65625 70.230469 315.886719 71.378906 C 316.113281 72.527344 316.285156 73.683594 316.398438 74.851562 C 316.515625 76.015625 316.574219 77.183594 316.574219 78.355469 L 316.574219 117.105469 C 309.566406 115.078125 302.417969 114.078125 295.125 114.101562 C 293.835938 114.105469 292.550781 114.136719 291.265625 114.203125 C 289.980469 114.269531 288.699219 114.363281 287.417969 114.492188 C 286.140625 114.621094 284.863281 114.78125 283.589844 114.972656 C 282.320312 115.160156 281.050781 115.382812 279.789062 115.636719 C 278.527344 115.890625 277.273438 116.171875 276.027344 116.488281 C 274.78125 116.800781 273.539062 117.144531 272.308594 117.519531 C 271.078125 117.894531 269.859375 118.300781 268.648438 118.734375 C 267.4375 119.167969 266.238281 119.632812 265.050781 120.125 C 263.863281 120.621094 262.6875 121.140625 261.523438 121.691406 C 260.359375 122.242188 259.214844 122.824219 258.078125 123.429688 C 256.945312 124.035156 255.824219 124.671875 254.722656 125.332031 C 253.621094 125.996094 252.535156 126.683594 251.464844 127.398438 C 250.394531 128.113281 249.34375 128.855469 248.3125 129.621094 C 247.277344 130.390625 246.265625 131.179688 245.269531 131.996094 C 244.277344 132.8125 243.300781 133.652344 242.347656 134.515625 C 241.394531 135.382812 240.464844 136.269531 239.554688 137.179688 C 238.644531 138.085938 237.757812 139.019531 236.894531 139.972656 C 236.03125 140.925781 235.191406 141.898438 234.375 142.894531 C 233.558594 143.886719 232.765625 144.902344 232 145.933594 C 231.234375 146.96875 230.492188 148.019531 229.777344 149.085938 C 229.0625 150.15625 228.371094 151.242188 227.710938 152.347656 C 227.046875 153.449219 226.414062 154.566406 225.808594 155.703125 C 225.199219 156.835938 224.621094 157.984375 224.070312 159.148438 C 223.519531 160.308594 222.996094 161.484375 222.503906 162.671875 C 222.011719 163.859375 221.546875 165.058594 221.109375 166.269531 C 220.675781 167.480469 220.273438 168.703125 219.898438 169.933594 C 219.523438 171.164062 219.175781 172.402344 218.863281 173.648438 C 218.550781 174.898438 218.265625 176.152344 218.011719 177.414062 C 217.761719 178.675781 217.539062 179.941406 217.347656 181.214844 C 217.15625 182.484375 217 183.761719 216.871094 185.042969 C 216.742188 186.324219 216.644531 187.605469 216.578125 188.890625 C 216.515625 190.175781 216.480469 191.460938 216.480469 192.746094 Z M 116.386719 221.34375 C 116.386719 221.8125 116.429688 222.277344 116.523438 222.738281 C 116.613281 223.199219 116.75 223.648438 116.929688 224.082031 C 117.109375 224.515625 117.328125 224.925781 117.589844 225.316406 C 117.851562 225.707031 118.148438 226.066406 118.480469 226.398438 C 118.8125 226.730469 119.171875 227.027344 119.5625 227.289062 C 119.953125 227.550781 120.363281 227.769531 120.796875 227.949219 C 121.230469 228.128906 121.679688 228.265625 122.140625 228.355469 C 122.601562 228.449219 123.066406 228.496094 123.535156 228.496094 L 195.03125 228.496094 C 195.5 228.496094 195.964844 228.449219 196.425781 228.355469 C 196.886719 228.265625 197.332031 228.128906 197.765625 227.949219 C 198.199219 227.769531 198.613281 227.550781 199.003906 227.289062 C 199.390625 227.027344 199.753906 226.730469 200.085938 226.398438 C 200.417969 226.066406 200.714844 225.707031 200.972656 225.316406 C 201.234375 224.925781 201.457031 224.515625 201.636719 224.082031 C 201.816406 223.648438 201.949219 223.199219 202.042969 222.738281 C 202.132812 222.277344 202.179688 221.8125 202.179688 221.34375 C 202.179688 220.875 202.132812 220.410156 202.042969 219.949219 C 201.949219 219.488281 201.816406 219.042969 201.636719 218.609375 C 201.457031 218.175781 201.234375 217.761719 200.972656 217.371094 C 200.714844 216.980469 200.417969 216.621094 200.085938 216.289062 C 199.753906 215.957031 199.390625 215.660156 199.003906 215.398438 C 198.613281 215.140625 198.199219 214.917969 197.765625 214.738281 C 197.332031 214.558594 196.886719 214.425781 196.425781 214.332031 C 195.964844 214.242188 195.5 214.195312 195.03125 214.195312 L 123.535156 214.195312 C 123.066406 214.195312 122.601562 214.242188 122.140625 214.332031 C 121.679688 214.425781 121.230469 214.558594 120.796875 214.738281 C 120.363281 214.917969 119.953125 215.140625 119.5625 215.398438 C 119.171875 215.660156 118.8125 215.957031 118.480469 216.289062 C 118.148438 216.621094 117.851562 216.980469 117.589844 217.371094 C 117.328125 217.761719 117.109375 218.175781 116.929688 218.609375 C 116.75 219.042969 116.613281 219.488281 116.523438 219.949219 C 116.429688 220.410156 116.386719 220.875 116.386719 221.34375 Z M 123.535156 171.296875 L 180.730469 171.296875 C 181.199219 171.296875 181.664062 171.253906 182.125 171.160156 C 182.585938 171.070312 183.03125 170.933594 183.464844 170.753906 C 183.902344 170.574219 184.3125 170.355469 184.703125 170.09375 C 185.09375 169.832031 185.453125 169.535156 185.785156 169.203125 C 186.117188 168.871094 186.414062 168.511719 186.675781 168.121094 C 186.9375 167.730469 187.15625 167.316406 187.335938 166.882812 C 187.515625 166.449219 187.652344 166.003906 187.742188 165.542969 C 187.835938 165.082031 187.878906 164.617188 187.878906 164.148438 C 187.878906 163.679688 187.835938 163.214844 187.742188 162.753906 C 187.652344 162.292969 187.515625 161.847656 187.335938 161.414062 C 187.15625 160.980469 186.9375 160.566406 186.675781 160.175781 C 186.414062 159.785156 186.117188 159.425781 185.785156 159.09375 C 185.453125 158.761719 185.09375 158.464844 184.703125 158.203125 C 184.3125 157.941406 183.902344 157.722656 183.464844 157.542969 C 183.03125 157.363281 182.585938 157.226562 182.125 157.136719 C 181.664062 157.042969 181.199219 157 180.730469 157 L 123.535156 157 C 123.066406 157 122.601562 157.042969 122.140625 157.136719 C 121.679688 157.226562 121.230469 157.363281 120.796875 157.542969 C 120.363281 157.722656 119.953125 157.941406 119.5625 158.203125 C 119.171875 158.464844 118.8125 158.761719 118.480469 159.09375 C 118.148438 159.425781 117.851562 159.785156 117.589844 160.175781 C 117.328125 160.566406 117.109375 160.980469 116.929688 161.414062 C 116.75 161.847656 116.613281 162.292969 116.523438 162.753906 C 116.429688 163.214844 116.386719 163.679688 116.386719 164.148438 C 116.386719 164.617188 116.429688 165.082031 116.523438 165.542969 C 116.613281 166.003906 116.75 166.449219 116.929688 166.882812 C 117.109375 167.316406 117.328125 167.730469 117.589844 168.121094 C 117.851562 168.511719 118.148438 168.871094 118.480469 169.203125 C 118.8125 169.535156 119.171875 169.832031 119.5625 170.09375 C 119.953125 170.355469 120.363281 170.574219 120.796875 170.753906 C 121.230469 170.933594 121.679688 171.070312 122.140625 171.160156 C 122.601562 171.253906 123.066406 171.296875 123.535156 171.296875 Z M 123.535156 271.390625 C 123.066406 271.390625 122.601562 271.4375 122.140625 271.527344 C 121.679688 271.621094 121.230469 271.757812 120.796875 271.9375 C 120.363281 272.117188 119.953125 272.335938 119.5625 272.597656 C 119.171875 272.855469 118.8125 273.152344 118.480469 273.484375 C 118.148438 273.816406 117.851562 274.179688 117.589844 274.570312 C 117.328125 274.960938 117.109375 275.371094 116.929688 275.804688 C 116.75 276.238281 116.613281 276.6875 116.523438 277.144531 C 116.429688 277.605469 116.386719 278.070312 116.386719 278.542969 C 116.386719 279.011719 116.429688 279.476562 116.523438 279.9375 C 116.613281 280.394531 116.75 280.84375 116.929688 281.277344 C 117.109375 281.710938 117.328125 282.121094 117.589844 282.511719 C 117.851562 282.902344 118.148438 283.265625 118.480469 283.597656 C 118.8125 283.929688 119.171875 284.226562 119.5625 284.484375 C 119.953125 284.746094 120.363281 284.96875 120.796875 285.148438 C 121.230469 285.324219 121.679688 285.460938 122.140625 285.554688 C 122.601562 285.644531 123.066406 285.691406 123.535156 285.691406 L 252.226562 285.691406 C 252.695312 285.691406 253.160156 285.644531 253.621094 285.554688 C 254.082031 285.460938 254.527344 285.324219 254.960938 285.148438 C 255.394531 284.96875 255.808594 284.746094 256.199219 284.484375 C 256.589844 284.226562 256.949219 283.929688 257.28125 283.597656 C 257.613281 283.265625 257.910156 282.902344 258.171875 282.511719 C 258.433594 282.121094 258.652344 281.710938 258.832031 281.277344 C 259.011719 280.84375 259.148438 280.394531 259.238281 279.9375 C 259.328125 279.476562 259.375 279.011719 259.375 278.542969 C 259.375 278.070312 259.328125 277.605469 259.238281 277.144531 C 259.148438 276.6875 259.011719 276.238281 258.832031 275.804688 C 258.652344 275.371094 258.433594 274.960938 258.171875 274.570312 C 257.910156 274.179688 257.613281 273.816406 257.28125 273.484375 C 256.949219 273.152344 256.589844 272.855469 256.199219 272.597656 C 255.808594 272.335938 255.394531 272.117188 254.960938 271.9375 C 254.527344 271.757812 254.082031 271.621094 253.621094 271.527344 C 253.160156 271.4375 252.695312 271.390625 252.226562 271.390625 Z M 252.226562 114.101562 C 252.695312 114.101562 253.160156 114.054688 253.621094 113.964844 C 254.082031 113.871094 254.527344 113.738281 254.960938 113.558594 C 255.394531 113.378906 255.808594 113.15625 256.199219 112.898438 C 256.589844 112.636719 256.949219 112.339844 257.28125 112.007812 C 257.613281 111.675781 257.910156 111.3125 258.171875 110.925781 C 258.433594 110.535156 258.652344 110.121094 258.832031 109.6875 C 259.011719 109.253906 259.148438 108.808594 259.238281 108.347656 C 259.328125 107.886719 259.375 107.421875 259.375 106.953125 C 259.375 106.484375 259.328125 106.015625 259.238281 105.558594 C 259.148438 105.097656 259.011719 104.648438 258.832031 104.214844 C 258.652344 103.78125 258.433594 103.371094 258.171875 102.980469 C 257.910156 102.589844 257.613281 102.226562 257.28125 101.894531 C 256.949219 101.566406 256.589844 101.269531 256.199219 101.007812 C 255.808594 100.746094 255.394531 100.527344 254.960938 100.347656 C 254.527344 100.167969 254.082031 100.03125 253.621094 99.941406 C 253.160156 99.847656 252.695312 99.800781 252.226562 99.800781 L 123.535156 99.800781 C 123.066406 99.800781 122.601562 99.847656 122.140625 99.941406 C 121.679688 100.03125 121.230469 100.167969 120.796875 100.347656 C 120.363281 100.527344 119.953125 100.746094 119.5625 101.007812 C 119.171875 101.269531 118.8125 101.566406 118.480469 101.894531 C 118.148438 102.226562 117.851562 102.589844 117.589844 102.980469 C 117.328125 103.371094 117.109375 103.78125 116.929688 104.214844 C 116.75 104.648438 116.613281 105.097656 116.523438 105.558594 C 116.429688 106.015625 116.386719 106.484375 116.386719 106.953125 C 116.386719 107.421875 116.429688 107.886719 116.523438 108.347656 C 116.613281 108.808594 116.75 109.253906 116.929688 109.6875 C 117.109375 110.121094 117.328125 110.535156 117.589844 110.925781 C 117.851562 111.3125 118.148438 111.675781 118.480469 112.007812 C 118.8125 112.339844 119.171875 112.636719 119.5625 112.898438 C 119.953125 113.15625 120.363281 113.378906 120.796875 113.558594 C 121.230469 113.738281 121.679688 113.871094 122.140625 113.964844 C 122.601562 114.054688 123.066406 114.101562 123.535156 114.101562 Z M 252.226562 114.101562 " fill-opacity="1" fill-rule="nonzero"/></g></svg>